<?xml version="1.0" standalone="no"?>
<!DOCTYPE svg PUBLIC "-//W3C//DTD SVG 20010904//EN"
 "http://www.w3.org/TR/2001/REC-SVG-20010904/DTD/svg10.dtd">
<svg version="1.0" xmlns="http://www.w3.org/2000/svg"
 width="1382.000000pt" height="1161.000000pt" viewBox="0 0 1382.000000 1161.000000"
 preserveAspectRatio="xMidYMid meet">

<g transform="translate(0.000000,1161.000000) scale(0.100000,-0.100000)"
fill="#000000" stroke="none">
<path d="M2538 11583 c6 -2 18 -2 25 0 6 3 1 5 -13 5 -14 0 -19 -2 -12 -5z"/>
<path d="M2470 11570 c-21 -7 -21 -8 -5 -9 11 0 27 4 35 9 18 11 5 11 -30 0z"/>
<path d="M2550 11553 c-73 -10 -140 -27 -140 -35 0 -6 -7 -7 -16 -4 -8 3 -12
2 -9 -4 3 -6 -1 -10 -9 -10 -9 0 -21 -9 -28 -19 -7 -11 -18 -17 -27 -14 -13 5
-14 3 -4 -7 10 -11 16 -11 30 2 52 46 172 79 270 75 34 -1 59 1 55 4 -9 9 -91
17 -122 12z"/>
<path d="M2580 11507 c0 -7 -20 -23 -45 -35 -31 -15 -45 -28 -45 -42 0 -22
-20 -26 -51 -10 -14 8 -28 6 -59 -10 -22 -11 -45 -18 -50 -15 -5 3 -11 1 -14
-4 -7 -10 22 -24 34 -16 5 3 11 1 15 -5 3 -5 0 -10 -9 -10 -8 0 -17 -6 -19
-12 -3 -8 -6 -6 -6 5 -1 21 -17 23 -25 2 -3 -8 -1 -15 4 -15 6 0 6 -10 -1 -26
-5 -15 -7 -35 -4 -45 7 -21 -10 -26 -19 -6 -3 6 -4 -23 -2 -66 3 -74 9 -97 22
-85 3 4 0 16 -6 28 -6 12 -8 29 -4 38 4 9 6 20 6 25 -1 4 2 7 7 7 5 0 17 3 26
6 16 6 16 5 1 -24 -9 -17 -16 -37 -16 -45 0 -21 26 -68 33 -60 4 3 7 -3 7 -15
0 -23 21 -29 54 -16 25 10 19 22 -14 29 -16 4 -30 11 -30 16 0 12 3 12 35 -5
19 -10 35 -12 51 -5 26 9 28 6 14 -26 -8 -18 -9 -18 -9 -2 -1 10 -6 15 -11 12
-6 -4 -10 -14 -9 -23 3 -32 -1 -40 -23 -47 -21 -6 -21 -8 -5 -12 30 -8 74 43
86 96 5 25 8 48 5 50 -2 2 -4 -1 -4 -7 0 -14 -116 -17 -124 -4 -11 18 29 45
74 51 6 0 10 5 10 10 0 10 -68 -6 -86 -20 -11 -9 -24 -2 -24 13 0 5 5 6 12 2
8 -5 9 -2 5 10 -4 10 -7 22 -7 28 0 7 -14 8 -35 5 -19 -3 -35 -2 -35 3 0 10
26 20 55 20 14 0 34 12 48 30 14 17 28 26 31 21 4 -5 0 -12 -6 -14 -8 -3 -6
-6 5 -6 9 -1 17 -5 17 -10 0 -5 -10 -7 -22 -4 -22 4 -22 4 -4 -11 10 -8 23
-13 29 -9 5 3 7 0 5 -8 -3 -8 -11 -13 -17 -11 -6 1 -11 -2 -11 -8 0 -5 -9 -10
-20 -10 -11 0 -20 -4 -20 -10 0 -12 23 -13 34 -2 4 4 12 8 17 8 5 1 14 2 19 3
6 0 10 5 10 10 0 5 14 39 30 74 17 36 30 70 30 76 0 6 4 11 9 11 17 0 23 -21
10 -36 -6 -8 -9 -17 -6 -20 8 -9 48 16 42 26 -3 4 1 11 7 13 7 3 3 6 -9 6 -28
1 -32 41 -7 65 12 13 12 16 2 16 -8 0 -19 -5 -26 -12 -14 -14 -44 -20 -36 -7
12 20 61 38 72 27 8 -8 11 -6 10 8 0 10 3 27 7 37 4 10 3 17 -4 17 -6 0 -11
-6 -11 -13z m-148 -116 c-2 -13 46 -5 63 10 12 12 35 11 35 -1 0 -5 -7 -10
-16 -10 -8 0 -13 -4 -10 -9 4 -5 -8 -13 -26 -16 -18 -4 -36 -13 -40 -19 -5 -8
-11 -7 -20 2 -7 8 -8 13 -3 12 22 -5 27 1 15 15 -14 17 -35 21 -25 5 7 -12 3
-12 -20 -4 -14 6 -13 8 7 19 26 15 44 13 40 -4z m-42 -41 c-8 -5 -22 -9 -30
-9 -10 0 -8 3 5 9 27 12 43 12 25 0z m30 -20 c8 -5 11 -10 5 -10 -5 0 -17 5
-25 10 -8 5 -10 10 -5 10 6 0 17 -5 25 -10z m-30 -23 c0 -17 -45 -42 -59 -33
-17 11 -13 34 7 39 34 9 52 7 52 -6z m80 -36 c0 -6 -4 -13 -10 -16 -5 -3 -10
1 -10 9 0 9 5 16 10 16 6 0 10 -4 10 -9z m-113 -141 c-2 -29 -17 -24 -17 6 0
14 4 23 9 19 6 -3 9 -14 8 -25z"/>
<path d="M2615 11510 c3 -5 11 -10 16 -10 6 0 7 5 4 10 -3 6 -11 10 -16 10 -6
0 -7 -4 -4 -10z"/>
<path d="M2651 11515 c-1 -6 4 -16 11 -23 14 -14 12 -15 -30 -3 -31 9 -38 5
-33 -23 1 -5 -8 -20 -21 -33 l-23 -25 22 -18 c13 -10 31 -16 42 -13 27 7 75
59 62 67 -18 11 -13 26 7 20 14 -5 14 -4 2 5 -8 5 -11 13 -7 17 4 4 13 2 19
-4 7 -7 17 -12 23 -12 17 1 -28 30 -46 30 -10 0 -20 6 -22 13 -3 6 -6 7 -6 2z
m13 -60 c7 -20 -28 -55 -54 -55 -23 0 -24 4 -9 33 20 38 52 49 63 22z"/>
<path d="M2744 11448 c2 -9 -2 -24 -10 -35 -14 -17 -15 -16 -9 10 4 20 2 27
-10 27 -8 0 -15 -8 -15 -17 0 -10 -12 -27 -27 -40 -17 -14 -24 -26 -18 -30 20
-16 14 -34 -23 -67 -36 -34 -36 -36 -19 -53 16 -16 17 -16 12 -1 -5 12 3 27
26 48 40 36 49 37 49 8 0 -27 -35 -88 -50 -88 -6 0 -5 -8 2 -20 7 -10 14 -17
16 -15 2 2 14 0 27 -5 26 -10 95 5 95 21 0 5 -8 4 -18 -2 -21 -13 -112 -4
-112 12 0 5 11 7 25 5 30 -6 40 7 25 34 -9 16 -8 18 5 14 15 -6 22 11 8 19 -5
2 -2 2 5 1 6 -2 12 2 12 9 1 7 10 1 20 -12 11 -13 20 -18 20 -13 0 6 -4 14
-10 17 -5 3 -10 15 -10 26 0 10 -3 18 -7 18 -19 -3 -33 2 -33 12 0 5 5 7 10 4
6 -3 10 -2 10 4 0 5 9 13 21 16 16 5 18 10 9 20 -7 8 -9 19 -5 24 3 6 -1 23
-10 38 -9 16 -14 21 -11 11z m12 -57 c-1 -20 -5 -27 -15 -23 -8 3 -12 1 -8 -5
4 -6 -2 -13 -13 -16 -15 -4 -20 -1 -18 10 2 9 -3 18 -11 21 -10 3 -11 -2 -6
-19 7 -23 7 -23 -8 -4 -13 17 -13 21 2 31 12 9 19 10 30 1 11 -9 17 -7 30 10
9 12 16 22 17 23 1 0 1 -13 0 -29z m-46 -174 c0 -7 -4 -6 -10 3 -8 12 -10 12
-10 1 0 -8 -3 -12 -6 -8 -9 9 6 28 17 22 5 -4 9 -12 9 -18z"/>
<path d="M2286 11433 c-6 -14 -5 -15 5 -6 7 7 10 15 7 18 -3 3 -9 -2 -12 -12z"/>
<path d="M2287 11400 c-9 -11 -13 -20 -8 -20 11 0 35 29 29 35 -2 2 -12 -4
-21 -15z"/>
<path d="M2610 11361 c0 -5 5 -13 11 -17 8 -4 7 -9 -2 -15 -22 -14 -29 -11
-22 9 6 15 5 15 -12 -2 -14 -14 -16 -21 -7 -24 6 -2 12 -8 12 -14 0 -5 -9 -6
-21 -3 -13 4 -27 1 -39 -10 -10 -9 -23 -14 -28 -11 -15 9 -38 -72 -24 -86 9
-9 12 -6 12 13 0 34 40 70 79 71 22 1 31 6 31 18 0 10 9 20 21 23 15 4 20 12
17 28 -3 22 -28 40 -28 20z"/>
<path d="M2782 11315 c0 -16 2 -22 5 -12 2 9 2 23 0 30 -3 6 -5 -1 -5 -18z"/>
<path d="M2510 11300 c0 -5 5 -10 11 -10 5 0 7 5 4 10 -3 6 -8 10 -11 10 -2 0
-4 -4 -4 -10z"/>
<path d="M2736 11254 c-10 -25 -7 -41 4 -24 9 13 11 13 20 0 5 -8 10 -10 10
-5 -1 6 -7 18 -14 28 -12 16 -14 16 -20 1z"/>
<path d="M2370 11230 c0 -13 11 -13 30 0 12 8 11 10 -7 10 -13 0 -23 -4 -23
-10z"/>
<path d="M2546 11214 c-9 -8 -16 -23 -16 -32 1 -14 3 -14 12 3 6 11 18 26 26
33 9 6 11 12 5 12 -7 0 -19 -7 -27 -16z"/>
<path d="M2596 11197 c3 -10 9 -15 12 -12 3 3 0 11 -7 18 -10 9 -11 8 -5 -6z"/>
<path d="M2725 11200 c-3 -5 -1 -10 4 -10 6 0 11 5 11 10 0 6 -2 10 -4 10 -3
0 -8 -4 -11 -10z"/>
<path d="M2610 11163 c0 -4 7 -26 16 -50 31 -79 -4 -95 -47 -20 -17 30 -24 37
-27 25 -2 -10 3 -25 12 -33 8 -8 17 -24 21 -34 8 -27 47 -35 63 -13 7 9 15 15
17 12 2 -3 7 -1 12 4 4 5 3 6 -4 2 -8 -4 -15 5 -21 26 -11 42 -9 45 22 24 31
-20 50 -20 66 -1 15 18 31 20 26 3 -1 -7 -1 -10 1 -6 3 4 4 11 4 15 0 5 10 13
22 20 31 17 6 16 -36 -2 -51 -21 -80 -19 -111 10 -28 26 -36 30 -36 18z"/>
<path d="M2660 11089 c0 -5 7 -9 15 -9 8 0 15 -4 15 -10 0 -5 9 -10 20 -10 31
0 23 14 -15 26 -19 6 -35 7 -35 3z"/>
<path d="M2746 11077 c3 -10 9 -15 12 -12 3 3 0 11 -7 18 -10 9 -11 8 -5 -6z"/>
<path d="M2777 11083 c-4 -3 -7 -11 -7 -17 0 -6 5 -5 12 2 6 6 9 14 7 17 -3 3
-9 2 -12 -2z"/>
<path d="M2547 11073 c-12 -12 -7 -34 6 -28 6 4 -3 -8 -21 -25 -33 -30 -38
-56 -7 -30 12 10 15 10 15 -4 0 -9 6 -16 13 -16 6 -1 1 -10 -12 -20 -16 -14
-19 -20 -8 -20 8 0 18 8 21 17 5 13 9 14 19 4 9 -10 8 -15 -7 -27 -18 -12 -18
-15 -4 -31 21 -24 32 -63 19 -63 -6 0 -11 8 -12 18 0 11 -2 12 -6 4 -3 -7 0
-19 7 -27 10 -12 14 -12 26 0 15 15 10 39 -13 67 -10 11 -11 18 -4 23 6 3 11
2 11 -2 0 -5 16 -35 35 -67 19 -32 35 -64 35 -71 0 -6 11 -34 25 -60 14 -26
24 -53 22 -59 -2 -6 -12 6 -22 27 -11 20 -22 37 -27 37 -4 0 -8 7 -8 15 0 9
-6 12 -15 9 -21 -8 -19 -18 8 -29 15 -7 21 -18 20 -33 -2 -13 1 -21 7 -17 9 6
14 -8 11 -28 -1 -4 8 -3 19 3 12 6 20 7 20 1 0 -5 7 -17 16 -26 9 -8 17 -26
18 -39 0 -13 5 -22 10 -19 4 3 5 -5 1 -18 -16 -51 -17 -54 -8 -44 13 16 33 16
39 0 4 -8 10 -15 14 -15 8 0 -23 72 -60 140 -25 46 -72 143 -100 205 -12 28
-28 57 -35 65 -8 8 -16 26 -20 40 -6 24 -4 25 37 22 40 -3 46 -1 77 38 32 40
36 65 7 41 -11 -9 -16 -9 -21 0 -4 6 -10 7 -14 3 -13 -18 -50 -34 -56 -24 -10
15 -35 12 -29 -4 9 -23 56 -27 75 -5 19 22 29 24 29 8 0 -22 -35 -38 -85 -39
-40 0 -53 4 -63 21 -18 29 -7 36 19 13 20 -18 20 -18 13 11 -9 37 -28 67 -37
58z m230 -555 c-3 -8 -6 -5 -6 6 -1 11 2 17 5 13 3 -3 4 -12 1 -19z"/>
<path d="M2419 11042 c9 -7 10 -11 2 -15 -7 -4 -8 -5 0 -3 15 2 13 20 -3 24
-10 3 -10 2 1 -6z"/>
<path d="M2790 11035 c0 -8 -5 -15 -12 -15 -6 0 -9 -2 -6 -5 3 -3 13 -3 22 1
17 7 22 34 6 34 -5 0 -10 -7 -10 -15z"/>
<path d="M10715 11006 c-42 -26 -53 -46 -76 -146 -6 -30 -20 -61 -30 -68 -10
-7 -22 -28 -27 -46 -9 -32 -60 -121 -182 -316 -33 -52 -67 -115 -77 -140 -9
-25 -46 -90 -83 -145 -37 -56 -73 -115 -81 -133 -12 -27 -19 -32 -49 -32 -53
0 -129 -60 -130 -102 0 -15 -10 -18 -52 -20 -52 -1 -52 -2 -10 -5 44 -4 55
-25 16 -31 -46 -9 -104 -88 -104 -143 0 -28 -3 -31 -25 -27 -17 4 -25 1 -25
-8 0 -8 -9 -19 -21 -26 -31 -19 -69 -101 -69 -148 0 -22 -4 -40 -10 -40 -5 0
-10 -6 -10 -13 0 -7 -9 -18 -20 -25 -12 -7 -18 -18 -14 -24 4 -6 3 -8 -2 -5
-24 14 -56 -39 -85 -142 -15 -53 -16 -68 -5 -76 19 -15 25 -49 11 -62 -7 -7
-16 -9 -19 -6 -3 4 -6 1 -6 -5 0 -6 -8 -13 -17 -15 -10 -3 5 -5 32 -6 30 -1
67 -10 90 -22 22 -11 67 -29 101 -40 33 -10 78 -32 100 -49 21 -17 54 -40 72
-51 17 -12 32 -25 32 -29 0 -18 51 -64 58 -53 4 6 16 13 27 15 26 4 30 -22 7
-48 -10 -10 -17 -25 -14 -32 2 -7 -3 -21 -12 -31 -12 -13 -13 -20 -4 -29 17
-17 31 -15 24 3 -3 9 0 15 9 15 13 0 19 -19 18 -57 -1 -15 0 -15 21 -7 9 3 16
12 16 20 0 9 11 14 27 14 25 0 26 -1 8 -13 -16 -13 -14 -15 26 -20 30 -4 60 0
98 14 31 10 68 19 84 19 58 0 181 -85 170 -119 -4 -14 -3 -14 6 -1 6 8 16 32
21 53 6 20 15 37 21 37 6 0 7 9 4 21 -5 14 -3 19 3 15 6 -3 13 2 16 11 4 17 2
-12 -8 -110 -4 -34 -2 -39 22 -49 15 -5 35 -14 44 -19 10 -5 25 -9 33 -9 8 0
15 -4 15 -10 0 -5 5 -10 10 -10 6 0 10 10 10 23 0 40 109 247 131 247 4 0 9
-7 13 -15 3 -8 13 -15 23 -15 14 0 14 -3 -5 -20 -12 -12 -22 -29 -22 -38 0
-10 -6 -27 -14 -38 -21 -29 -46 -135 -45 -185 1 -24 3 -36 6 -26 2 9 9 17 14
17 5 0 9 -8 9 -17 0 -12 3 -14 8 -6 5 8 21 5 57 -12 80 -38 186 -74 201 -68 8
3 17 -2 20 -11 4 -9 23 -26 43 -37 20 -10 43 -23 51 -28 8 -4 31 -16 50 -26
19 -10 38 -24 42 -30 5 -8 27 -11 58 -10 30 1 57 -3 67 -11 26 -20 31 -17 25
13 -5 26 -4 26 39 19 43 -6 51 -13 114 -88 41 -49 80 -104 97 -136 16 -33 16
-34 -3 -29 -32 8 -21 -8 14 -21 42 -16 90 -59 111 -100 19 -37 17 -52 -4 -27
-14 17 -35 21 -25 5 3 -5 2 -10 -4 -10 -5 0 -13 5 -16 10 -4 6 -11 8 -16 5 -5
-4 1 -19 13 -35 12 -16 26 -26 31 -23 6 3 7 1 3 -6 -4 -6 0 -18 8 -27 9 -8 16
-22 16 -30 0 -8 4 -14 8 -14 5 0 16 -17 25 -37 l17 -38 -20 25 c-37 47 -245
268 -252 269 -5 1 -8 -5 -8 -13 0 -8 -3 -16 -7 -19 -5 -2 -3 -3 2 -2 6 2 24
-17 40 -41 17 -24 35 -42 40 -40 6 2 11 -8 11 -21 1 -14 14 -37 28 -52 14 -15
26 -31 26 -36 0 -4 16 -32 35 -61 19 -29 35 -57 35 -63 0 -6 4 -11 8 -11 5 0
17 -18 27 -39 10 -22 24 -42 31 -45 8 -3 14 -12 14 -20 0 -7 7 -27 15 -42 8
-16 15 -36 15 -44 0 -21 37 -80 71 -113 16 -15 28 -30 27 -35 -3 -13 13 -52
22 -52 5 0 17 -26 26 -57 41 -142 46 -153 74 -173 16 -11 32 -30 35 -41 4 -12
18 -37 31 -56 13 -20 24 -44 24 -53 0 -14 8 -17 53 -14 48 4 50 3 22 -8 -16
-6 -36 -17 -43 -25 -7 -7 -22 -13 -33 -13 -35 0 -20 -18 21 -25 27 -4 38 -11
33 -18 -4 -7 0 -6 10 1 12 10 33 12 82 7 36 -4 67 -11 70 -15 3 -5 -6 -22 -20
-38 -29 -34 -32 -84 -11 -145 8 -20 11 -39 7 -41 -3 -2 -34 -6 -67 -10 -61 -7
-62 -7 -68 21 -20 83 -23 108 -16 140 10 41 4 63 -16 63 -8 0 -14 5 -14 10 0
11 -60 4 -71 -8 -4 -4 -10 -43 -14 -87 -6 -74 -5 -82 14 -99 28 -25 29 -70 1
-63 -11 3 -18 0 -17 -6 1 -6 -13 -18 -31 -27 -18 -9 -30 -19 -26 -23 4 -3 14
-2 23 2 9 5 21 10 26 11 6 1 21 7 35 12 97 39 250 53 250 23 0 -8 8 -15 18
-16 30 -1 -20 -17 -64 -20 -21 -2 -48 -9 -60 -16 -11 -7 -23 -10 -27 -7 -9 9
-20 -43 -14 -66 4 -17 0 -20 -24 -20 -38 0 -119 22 -119 32 0 4 -28 8 -63 8
-35 0 -67 3 -73 8 -5 4 -31 5 -59 2 l-50 -5 65 -8 c115 -14 256 -40 330 -62
25 -7 71 -19 103 -26 67 -14 88 -30 24 -18 -23 4 -64 8 -90 9 -29 0 -46 4 -42
10 3 5 0 7 -8 4 -8 -3 -41 -1 -73 5 -100 18 -214 17 -252 -3 -32 -17 -34 -20
-28 -59 20 -128 21 -118 -26 -168 -24 -25 -69 -65 -100 -88 -32 -24 -58 -51
-58 -60 0 -9 9 -29 20 -46 29 -44 24 -54 -9 -17 -17 17 -34 32 -40 32 -5 0
-17 13 -27 28 -9 16 -34 40 -55 53 -22 13 -39 28 -39 32 0 5 -7 6 -16 3 -8 -3
-12 -2 -9 4 3 6 -1 13 -10 16 -9 4 -31 27 -50 51 -55 72 -255 243 -285 243
-14 0 -64 -5 -110 -12 -47 -6 -179 -13 -295 -14 -180 -2 -448 -17 -406 -22 47
-6 151 -176 241 -392 13 -30 29 -68 36 -85 7 -16 15 -43 19 -60 5 -24 4 -27
-5 -15 -9 13 -10 12 -8 -5 4 -31 -52 -136 -71 -133 -19 4 -71 107 -106 210
-15 43 -30 76 -34 75 -4 -1 -29 19 -56 46 -27 26 -57 47 -67 47 -15 0 -17 5
-12 25 5 18 2 25 -9 25 -8 0 -17 -3 -20 -7 -2 -5 -2 -2 -1 5 5 17 -11 15 -30
-4 -18 -17 -22 -39 -6 -29 7 4 9 -2 4 -19 -3 -15 -2 -26 4 -26 17 0 -2 -55
-20 -58 -9 -2 -26 12 -39 30 -75 107 -341 333 -469 398 -42 21 -44 21 -129 6
-69 -13 -290 -68 -508 -125 -29 -8 -115 16 -244 67 -19 8 -30 7 -39 -1 -10 -9
-11 -9 -6 1 4 6 5 12 2 12 -7 0 -51 -74 -48 -82 1 -5 -4 -7 -11 -5 -6 1 -11
-4 -10 -10 2 -7 -1 -13 -6 -13 -5 0 -8 -8 -7 -17 0 -10 -5 -18 -13 -18 -8 0
-23 -24 -34 -52 -11 -29 -23 -50 -27 -48 -7 4 -110 -156 -110 -171 0 -18 -56
-75 -70 -71 -12 3 -15 -2 -14 -22 2 -40 3 -41 23 -41 13 0 20 -10 25 -32 3
-17 4 -33 1 -36 -3 -3 -5 -1 -5 5 0 6 -8 9 -17 7 -12 -3 -37 13 -69 43 -113
107 -306 263 -325 263 -7 0 -20 7 -29 15 -9 8 -34 18 -56 23 -23 5 -38 14 -36
22 2 7 -3 10 -12 7 -9 -4 -18 -3 -20 2 -3 4 -39 16 -81 26 -98 23 -171 17
-196 -16 l-19 -24 6 35 c4 19 7 37 7 40 1 3 -2 25 -6 49 -6 34 -11 41 -19 33
-7 -7 -26 -11 -42 -11 -28 2 -28 2 -6 6 14 3 30 9 37 15 7 5 25 7 40 4 15 -4
37 -8 48 -10 79 -15 304 -104 439 -172 58 -30 200 -125 216 -144 3 -4 13 -9
23 -13 29 -11 19 13 -13 31 -31 18 -39 32 -17 32 8 0 8 3 -2 9 -8 5 -20 7 -27
4 -6 -2 -15 0 -19 6 -3 6 -1 11 5 11 6 0 8 10 4 25 -5 20 -3 24 10 19 11 -4
16 -1 16 10 0 9 -4 16 -10 16 -5 0 -10 9 -10 20 0 11 5 20 10 20 6 0 10 9 10
20 0 11 -5 20 -10 20 -13 0 -2 72 13 82 6 3 8 29 5 60 -3 29 -3 45 -1 36 2
-10 9 -18 14 -18 12 0 12 27 -1 35 -16 10 -12 36 8 51 16 13 16 13 -3 14 -11
0 -33 11 -50 25 -24 19 -27 26 -16 34 8 5 12 18 9 28 -3 11 1 28 8 38 8 10 13
37 13 59 l-2 41 -6 -47 c-4 -27 -12 -53 -19 -60 -7 -7 -12 -20 -12 -30 0 -10
-7 -18 -15 -18 -9 0 -12 6 -9 15 8 19 -33 54 -63 55 -19 0 -23 -5 -23 -30 0
-16 -4 -30 -9 -30 -5 0 -12 14 -16 30 -5 21 -13 30 -26 30 -14 0 -21 -9 -25
-30 -6 -29 -27 -40 -39 -20 -3 6 -16 10 -29 10 -19 0 -22 -4 -18 -30 3 -19 0
-30 -8 -30 -7 0 -9 8 -4 22 6 20 5 21 -10 9 -18 -15 -21 -4 -6 33 6 16 6 27 0
31 -6 4 -10 0 -10 -8 0 -21 -30 -75 -31 -57 -1 8 -1 18 0 23 2 16 -8 5 -30
-30 -13 -20 -22 -48 -21 -61 1 -18 -2 -23 -13 -18 -18 6 -49 -48 -41 -71 4
-11 2 -13 -9 -10 -8 4 -17 1 -21 -5 -4 -7 -3 -8 4 -4 16 10 15 3 -5 -39 -9
-19 -21 -35 -25 -35 -5 0 -6 5 -3 10 3 6 2 10 -4 10 -5 0 -11 -4 -13 -9 -4
-11 -93 10 -108 25 -7 7 1 23 23 50 44 51 89 133 80 147 -3 5 -1 7 4 4 6 -4
14 0 17 10 8 19 -9 39 -80 94 -50 38 -59 57 -40 87 3 5 33 7 68 6 35 -2 66 -3
71 -4 4 0 7 -7 7 -15 0 -14 11 -19 37 -16 8 1 10 -5 7 -16 -4 -14 -3 -14 7 2
12 19 17 37 21 77 1 9 5 16 8 16 21 -2 30 5 30 23 0 15 5 19 15 15 21 -8 35
23 24 53 -6 13 -7 31 -4 39 4 12 3 13 -9 3 -18 -15 -31 -8 -47 21 -10 18 -9
20 5 15 11 -4 15 -3 11 4 -4 6 -13 8 -20 5 -16 -6 -39 19 -31 33 6 9 -79 97
-123 128 -14 9 -21 25 -21 46 1 29 2 30 14 15 14 -20 31 -25 20 -7 -4 7 -1 10
7 7 20 -7 25 -40 6 -36 -9 2 -17 -1 -19 -5 -5 -12 169 -73 179 -63 3 3 -6 11
-21 17 -27 13 -36 39 -13 39 7 0 25 15 41 33 l29 32 -6 -30 c-5 -26 -4 -24 13
10 10 22 19 46 19 53 1 6 6 12 11 12 6 0 10 6 10 13 0 21 -205 91 -475 164
-97 26 -214 53 -230 53 -5 0 -3 5 5 10 11 7 5 8 -20 4 -24 -4 -31 -3 -21 4 11
8 9 11 -8 17 -11 3 -25 3 -31 0 -5 -3 -10 -1 -10 4 0 6 -9 11 -19 11 -11 0
-23 5 -26 10 -4 7 3 8 22 4 19 -4 25 -3 18 4 -13 13 -270 57 -415 71 -212 19
-294 22 -430 11 -74 -6 -152 -12 -173 -12 -28 -2 -33 -4 -21 -11 8 -5 33 -7
54 -5 21 2 36 -1 33 -5 -3 -5 -38 -7 -77 -3 -50 4 -65 3 -51 -4 16 -8 12 -9
-18 -6 -30 4 -37 2 -35 -11 2 -10 -8 -20 -27 -26 -16 -5 -32 -13 -35 -17 -3
-4 -17 -10 -32 -14 -16 -3 -27 -12 -25 -18 1 -7 -17 -16 -40 -21 -24 -6 -43
-15 -43 -22 0 -6 15 -29 33 -51 19 -21 36 -47 40 -56 3 -10 13 -18 20 -18 20
0 75 -125 83 -187 10 -76 -2 -119 -42 -159 -34 -32 -74 -46 -74 -24 0 22 -103
-56 -121 -91 -10 -21 -23 -40 -29 -44 -13 -8 -13 -62 0 -70 22 -13 7 -37 -66
-107 -41 -40 -82 -86 -90 -101 -8 -15 -19 -25 -24 -22 -6 3 -7 -1 -4 -9 3 -9
11 -13 17 -9 20 12 -33 -56 -56 -72 -12 -8 -17 -15 -13 -15 5 0 25 12 45 27
25 19 31 21 21 8 -8 -11 -22 -25 -31 -32 -9 -7 -19 -30 -23 -52 -3 -22 -13
-46 -21 -54 -8 -8 -12 -17 -10 -19 2 -2 0 -17 -5 -34 -8 -22 -9 -11 -5 46 2
44 1 69 -4 61 -5 -8 -12 -107 -16 -220 -9 -299 -13 -305 -149 -272 -81 20
-210 74 -222 92 -3 5 -9 7 -14 4 -5 -3 -20 1 -32 9 -31 19 -153 56 -187 56
-14 0 -37 -9 -51 -20 -14 -11 -29 -20 -35 -20 -5 0 -27 29 -47 64 -41 70 -41
69 -2 260 8 38 14 83 13 100 -1 27 -2 26 -11 -14 -7 -29 -13 -39 -17 -29 -4
10 -12 14 -22 10 -19 -7 -77 -74 -109 -125 -25 -42 -58 -56 -75 -32 -18 24
-37 20 -102 -19 -67 -41 -73 -42 -66 -15 3 11 0 20 -6 20 -6 0 -11 4 -11 8 0
13 83 70 113 77 15 4 27 11 27 16 0 4 16 1 36 -7 39 -16 57 -7 51 26 -3 17
-37 27 -37 11 0 -5 7 -11 16 -13 10 -2 -23 -4 -72 -5 -91 -3 -171 14 -205 43
-8 8 -20 14 -26 14 -9 0 -137 73 -152 86 -2 2 3 4 12 4 8 0 22 -6 29 -13 7 -7
32 -18 56 -25 23 -7 42 -17 42 -21 0 -5 17 -11 37 -14 21 -3 81 -12 133 -20
52 -7 97 -11 100 -7 3 4 16 13 29 20 19 10 25 10 33 -1 7 -11 8 -9 4 4 -3 10
-6 22 -6 26 0 11 -68 33 -80 26 -6 -3 -27 -1 -48 6 -74 24 -124 55 -173 107
-28 28 -59 52 -69 52 -31 0 -152 -49 -165 -67 -7 -9 -17 -13 -23 -9 -6 4 -33
-8 -59 -27 -26 -18 -75 -48 -108 -67 -33 -18 -71 -42 -84 -52 -32 -24 -39 -23
-33 7 2 14 8 25 13 25 5 0 1 9 -9 19 -66 72 -96 100 -103 95 -5 -3 -9 0 -9 5
0 6 -7 11 -16 11 -13 0 -13 -2 -1 -14 8 -8 13 -28 12 -44 -1 -22 2 -29 12 -25
10 4 11 9 4 16 -6 6 -11 16 -11 22 1 5 9 0 20 -13 16 -19 17 -27 7 -43 -10
-16 -13 -17 -17 -3 -3 8 -9 15 -13 15 -4 -1 -25 -1 -47 -1 -33 0 -40 4 -40 19
0 18 -14 19 -240 26 -132 4 -240 11 -240 16 0 5 -15 9 -34 9 -18 0 -50 7 -70
15 -20 9 -42 13 -49 10 -7 -4 -3 1 7 9 11 9 25 16 30 16 6 0 4 -5 -4 -11 -12
-8 -10 -9 9 -4 16 5 21 4 17 -4 -4 -6 0 -11 11 -11 16 1 15 3 -6 20 -13 11
-22 20 -20 21 2 0 15 2 27 3 13 2 28 9 33 17 6 11 35 14 121 14 l113 -1 -65
13 c-105 20 -129 15 -246 -44 -31 -16 -33 -16 -64 10 -47 40 -83 34 -167 -29
-42 -31 -44 -32 -165 -33 -68 -1 -140 -6 -160 -10 -20 -5 -39 -7 -42 -4 -2 3
-14 2 -25 -2 -36 -11 -12 -28 28 -20 37 8 175 15 271 15 30 0 75 6 100 13 42
14 44 15 21 24 -24 9 -24 9 10 26 19 10 42 23 51 29 13 10 24 8 53 -8 45 -24
49 -29 30 -44 -13 -11 -14 -10 -8 5 5 14 3 17 -10 12 -11 -4 -17 -1 -17 7 0 9
-8 12 -24 9 -16 -3 -23 -10 -19 -19 4 -12 0 -12 -22 -4 -33 12 -35 12 -35 0 0
-5 17 -14 38 -20 22 -5 48 -18 59 -27 17 -16 18 -21 5 -43 l-14 -25 7 28 c4
21 3 27 -6 21 -7 -4 -18 1 -26 12 -13 18 -15 18 -71 -1 -31 -11 -60 -19 -64
-18 -4 2 -5 -4 -2 -11 3 -8 -3 -19 -13 -24 -22 -12 -139 -28 -268 -38 -84 -6
-96 -4 -160 21 -39 15 -109 47 -158 71 -89 44 -184 70 -228 61 -17 -3 -13 -5
16 -7 30 -2 23 -5 -31 -9 -53 -5 -89 -16 -147 -45 -42 -22 -77 -43 -77 -49 0
-5 -9 -7 -20 -4 -11 3 -18 2 -16 -2 5 -8 -16 -28 -53 -49 -16 -9 -26 -10 -35
-3 -7 6 -16 8 -19 4 -4 -3 -7 -4 -7 0 0 3 11 18 25 32 14 14 21 25 14 25 -7 0
-2 9 11 20 13 11 26 20 30 20 4 0 20 11 36 25 16 14 25 25 21 25 -15 0 -124
-64 -196 -114 -31 -22 -44 -26 -54 -18 -10 8 -17 8 -24 1 -16 -16 -93 -1 -93
17 0 12 -4 12 -20 2 -16 -10 -24 -10 -39 -1 -15 10 -20 10 -24 0 -3 -9 -8 -9
-20 2 -10 7 -17 18 -17 24 0 13 31 36 48 37 7 0 28 10 45 23 44 31 65 43 119
70 26 13 44 28 40 32 -4 5 -2 5 4 2 16 -9 75 15 70 28 -2 7 7 10 25 7 34 -5
38 5 7 17 -37 13 69 41 159 41 54 0 73 3 63 10 -8 5 -41 10 -72 10 -46 0 -58
3 -58 16 0 8 -5 12 -10 9 -6 -4 -21 0 -33 8 -12 7 -53 22 -91 32 -38 11 -65
20 -60 21 5 1 27 5 48 9 29 5 36 9 25 16 -11 7 -8 9 10 9 17 0 22 -4 17 -16
-3 -9 -2 -12 5 -9 5 4 32 2 58 -5 46 -11 52 -10 87 14 22 14 50 34 64 45 14
11 31 21 39 21 8 0 11 3 8 7 -4 3 0 15 10 25 28 31 15 100 -37 200 -5 9 -20
44 -34 77 l-24 60 36 34 c21 18 55 55 77 81 22 26 56 64 76 84 20 20 40 44 45
54 5 9 25 34 44 55 19 21 48 57 64 80 39 58 123 149 130 142 4 -3 -3 -18 -15
-32 -13 -17 -15 -25 -6 -21 20 7 38 49 26 61 -5 5 -3 17 6 28 8 11 28 37 44
57 15 21 32 34 36 30 5 -4 5 -2 2 5 -4 6 8 28 26 49 30 36 43 49 107 106 15
13 19 17 10 11 -9 -7 -20 -13 -24 -13 -4 0 -36 -21 -71 -47 -55 -42 -183 -128
-234 -158 -9 -5 -31 -21 -49 -34 -18 -13 -36 -21 -39 -18 -7 7 22 37 35 37 6
0 12 4 14 8 2 5 30 28 63 52 33 24 62 46 65 49 10 12 117 90 195 142 44 30 82
56 85 59 3 3 31 23 62 44 31 21 94 76 139 123 l83 84 -45 87 c-66 130 -133
242 -144 242 -5 0 -38 -27 -73 -60 -34 -33 -68 -60 -75 -60 -15 0 114 129 130
130 6 0 14 8 17 18 4 11 18 29 31 42 23 22 25 22 26 4 1 -11 4 -6 8 11 3 16
15 34 27 40 12 6 19 17 16 25 -5 13 -3 13 13 0 17 -14 18 -13 12 3 -5 12 -1
17 12 17 42 0 63 73 31 112 -11 14 -20 32 -20 38 0 7 -10 28 -22 48 -19 32
-31 70 -43 146 -2 16 -11 36 -19 45 -19 22 -66 156 -66 190 0 47 -12 91 -22
85 -6 -4 -8 3 -3 17 6 22 4 21 -18 -6 -14 -16 -23 -33 -21 -37 3 -4 -3 -5 -13
-1 -16 6 -17 5 -3 -12 14 -17 13 -18 -4 -12 -14 6 -17 4 -12 -9 4 -12 2 -15
-9 -10 -18 7 -20 -5 -2 -24 10 -12 9 -12 -6 -1 -15 12 -22 12 -42 1 -14 -7
-25 -18 -25 -23 0 -5 6 -4 13 2 8 6 17 8 20 4 4 -3 7 0 7 8 0 11 2 11 10 -1
18 -28 -35 -32 -235 -16 -56 5 -84 4 -75 -2 8 -5 58 -12 110 -16 52 -3 115
-12 140 -20 l45 -14 -75 1 c-41 1 -79 6 -83 12 -6 6 -7 3 -4 -7 4 -12 -2 -18
-24 -23 -16 -4 -29 -10 -29 -14 0 -4 -9 -17 -21 -29 -11 -12 -31 -50 -44 -85
-15 -38 -29 -61 -37 -59 -27 7 8 -15 50 -31 63 -25 76 -22 131 31 83 79 98 92
104 86 6 -6 -123 -134 -135 -134 -5 0 -8 -9 -8 -20 0 -13 -7 -20 -20 -20 -14
0 -20 -7 -20 -21 0 -12 -8 -23 -20 -26 -11 -3 -20 -11 -20 -18 0 -7 -7 -16
-16 -19 -9 -4 -14 -9 -11 -12 3 -4 -5 -18 -19 -32 -13 -15 -24 -32 -24 -39 0
-16 -17 -17 -22 -1 -3 9 -6 9 -12 0 -4 -7 -2 -12 3 -12 6 0 11 -5 11 -11 0 -6
-9 -8 -22 -4 -15 4 -19 3 -10 -3 10 -7 10 -11 -3 -22 -8 -7 -15 -18 -15 -26 0
-7 -9 -18 -20 -24 -12 -7 -17 -16 -13 -27 5 -12 2 -15 -10 -10 -11 4 -14 2
-10 -9 3 -7 0 -14 -6 -14 -6 0 -11 -5 -11 -11 0 -13 -38 -56 -150 -169 -47
-48 -102 -105 -123 -129 -21 -23 -42 -39 -47 -36 -5 3 -12 0 -16 -6 -4 -8 -3
-9 4 -5 7 4 12 3 12 -3 0 -5 -6 -14 -13 -18 -7 -4 -24 -23 -39 -41 -15 -18
-31 -33 -35 -34 -4 -1 -14 -13 -21 -27 -6 -14 -27 -42 -45 -62 -33 -37 -41
-49 -78 -107 -16 -24 -26 -31 -40 -27 -14 5 -17 2 -13 -8 3 -8 -6 -31 -20 -52
-16 -24 -26 -31 -26 -21 0 10 -5 14 -10 11 -6 -4 -8 -10 -5 -15 3 -5 -2 -24
-11 -41 -13 -25 -18 -29 -26 -18 -7 10 -8 8 -3 -8 7 -24 -9 -32 -19 -10 -3 6
-4 0 -1 -14 3 -18 0 -29 -10 -33 -8 -3 -15 -12 -15 -20 0 -9 -6 -13 -14 -10
-11 4 -13 0 -9 -15 4 -17 2 -20 -11 -15 -9 3 -16 1 -16 -6 0 -6 -20 -29 -44
-52 -25 -22 -42 -46 -40 -53 4 -10 -2 -13 -22 -10 -25 2 -26 1 -10 -10 20 -15
13 -37 -9 -28 -10 3 -15 -1 -15 -15 0 -11 -6 -22 -13 -25 -34 -13 10 114 53
153 3 3 27 37 53 75 93 139 287 391 368 480 20 22 63 72 95 110 32 39 64 75
70 80 6 6 39 44 74 85 34 41 140 155 236 252 96 98 174 180 174 183 0 3 -20 5
-44 5 -37 0 -46 -5 -67 -32 -13 -17 -34 -41 -46 -52 -13 -11 -23 -23 -23 -28
0 -4 -25 -32 -55 -62 -30 -29 -55 -59 -55 -65 0 -6 -7 -11 -15 -11 -8 0 -15
-7 -15 -15 0 -8 -7 -15 -15 -15 -8 0 -15 -4 -15 -10 0 -5 5 -10 10 -10 6 0 10
-5 10 -11 0 -8 -5 -7 -16 2 -13 10 -24 8 -71 -17 -71 -36 -147 -112 -292 -290
-62 -76 -121 -148 -130 -159 -17 -21 -165 -212 -254 -329 -12 -16 -27 -34 -32
-40 -6 -6 -22 -27 -35 -46 -13 -19 -61 -85 -107 -147 -46 -62 -83 -114 -83
-117 0 -3 -13 -24 -29 -48 -47 -70 -126 -226 -166 -328 -73 -186 -97 -240
-123 -278 -13 -19 -20 -37 -17 -41 10 -10 43 40 61 92 8 26 19 47 22 47 4 0
18 21 32 48 52 100 117 191 128 180 8 -8 9 -5 5 11 -3 12 -1 21 6 21 6 0 11
-6 11 -14 0 -14 -53 -121 -70 -141 -16 -19 -158 -308 -175 -355 -30 -83 -61
-187 -96 -318 -12 -45 -23 -81 -25 -80 -8 9 -31 144 -24 148 8 6 5 68 -4 77
-3 4 -6 -10 -6 -30 0 -26 -13 -56 -43 -104 -24 -38 -62 -106 -86 -153 -24 -47
-48 -90 -52 -96 -6 -7 3 -34 20 -70 66 -132 95 -218 121 -366 16 -87 27 -103
63 -89 37 14 99 14 134 -1 15 -7 51 -27 79 -45 28 -18 76 -42 106 -52 30 -10
63 -23 74 -29 10 -6 28 -13 38 -17 10 -3 16 -8 13 -11 -3 -3 -21 -1 -41 6 -52
17 -86 21 -86 11 0 -10 79 -23 135 -22 27 0 36 -2 26 -8 -11 -7 -4 -11 25 -16
21 -3 64 -13 94 -22 30 -9 63 -18 73 -20 10 -2 60 -16 110 -32 104 -33 167
-51 182 -51 19 1 -29 30 -49 30 -39 0 -93 20 -93 34 0 8 6 12 14 9 7 -3 11 -9
8 -13 -3 -4 9 -10 26 -14 46 -9 57 -7 34 6 -11 6 -38 26 -60 44 -53 43 -160
84 -325 125 -163 41 -137 52 33 14 156 -35 267 -75 353 -128 38 -23 95 -55
127 -70 65 -33 87 -60 60 -76 -23 -13 -12 -14 22 -1 15 6 24 6 20 1 -8 -14 40
-48 80 -55 19 -4 35 -11 35 -15 0 -5 12 -11 28 -14 15 -3 44 -10 65 -15 21 -6
37 -6 37 -1 0 5 -12 9 -27 9 -16 0 -35 5 -43 11 -12 8 -11 9 5 5 11 -2 41 -7
68 -11 26 -3 45 -10 43 -14 -3 -4 42 -12 99 -19 57 -7 119 -19 137 -28 25 -11
27 -14 8 -10 -14 3 -32 1 -40 -5 -13 -9 -13 -10 0 -8 33 5 200 -25 191 -34 -6
-6 -26 -6 -53 1 -24 6 -47 7 -51 3 -12 -12 87 -21 123 -11 22 6 51 4 96 -7 35
-9 63 -18 61 -20 -3 -2 -24 1 -48 6 -24 6 -62 10 -84 9 l-40 -1 35 -4 c62 -7
300 -53 379 -72 42 -11 96 -22 121 -26 24 -4 55 -14 67 -22 13 -9 30 -13 38
-9 9 3 13 2 10 -4 -3 -6 3 -10 13 -10 11 0 64 -14 118 -31 121 -37 251 -71
281 -73 11 0 19 -4 17 -8 -6 -10 34 -20 47 -12 7 4 9 3 6 -3 -7 -11 23 -23 61
-23 12 0 22 -5 22 -10 0 -6 6 -10 13 -9 26 3 48 -1 43 -10 -8 -12 43 -32 68
-26 11 2 15 2 8 -1 -10 -5 -10 -9 -1 -20 6 -8 16 -14 22 -14 5 0 16 -8 24 -17
9 -11 12 -12 7 -3 -6 12 -5 13 7 2 8 -7 14 -18 14 -25 1 -7 7 -10 15 -9 41 10
50 10 45 1 -4 -5 -11 -6 -17 -3 -6 4 -8 1 -6 -7 3 -8 12 -12 19 -9 8 2 32 4
55 5 49 0 236 -91 292 -142 20 -18 43 -35 52 -38 37 -12 105 -171 155 -364 19
-73 35 -141 35 -150 0 -9 8 -25 17 -36 l16 -20 -8 20 c-3 11 -9 35 -11 53 -2
17 -11 49 -19 70 -8 20 -19 65 -25 99 -12 72 -44 169 -62 191 -11 13 -10 14 2
11 8 -3 22 -19 30 -35 9 -17 31 -55 50 -85 19 -30 46 -76 60 -104 14 -27 28
-52 31 -55 3 -3 11 -21 19 -40 8 -19 16 -37 19 -40 22 -19 57 -155 70 -270 14
-113 27 -186 76 -410 14 -63 33 -149 41 -190 9 -41 25 -112 35 -158 11 -45 17
-88 13 -95 -4 -7 -3 -9 1 -4 5 4 25 -41 45 -100 21 -60 42 -121 49 -136 19
-49 12 -61 -14 -23 -14 20 -25 39 -25 42 0 3 -13 25 -30 49 -16 24 -30 47 -30
52 0 4 -11 26 -25 48 l-24 40 -1 -29 c0 -16 3 -26 6 -23 4 4 16 -10 26 -30 16
-30 18 -41 8 -61 -11 -25 -32 -211 -45 -407 -4 -55 -11 -105 -17 -112 -5 -7
-7 -17 -3 -23 3 -5 2 -10 -4 -10 -6 0 -8 -7 -5 -15 4 -8 2 -15 -4 -15 -6 0
-13 6 -15 13 -3 6 -6 -4 -6 -25 l-1 -36 58 61 c32 34 98 107 146 162 49 55
175 186 280 291 105 104 236 239 291 299 108 117 295 289 304 279 3 -4 0 -9
-6 -11 -15 -5 -18 -33 -4 -33 5 0 12 6 14 13 3 6 6 2 6 -10 1 -12 6 -25 11
-28 13 -8 42 14 34 26 -3 5 4 9 15 9 11 0 24 8 30 17 5 10 12 15 15 12 4 -3
-4 -17 -16 -30 -13 -14 -36 -41 -53 -60 -73 -88 -287 -323 -376 -414 -175
-178 -509 -547 -581 -642 -21 -26 -48 -59 -60 -73 -41 -44 -88 -108 -88 -118
0 -5 -9 -21 -20 -35 -12 -15 -21 -30 -22 -34 -2 -18 -22 -53 -30 -53 -13 0
-10 -46 12 -186 11 -71 25 -163 31 -204 6 -41 19 -114 30 -162 23 -105 24
-163 4 -202 -8 -15 -12 -32 -9 -37 3 -5 0 -8 -7 -7 -7 2 -15 -6 -17 -16 -2
-10 -13 -28 -23 -40 -11 -11 -17 -26 -15 -33 3 -7 0 -12 -7 -10 -7 1 -11 -6
-11 -15 1 -10 -2 -16 -6 -13 -4 2 -12 -7 -19 -21 -9 -20 -9 -24 1 -18 7 4 5
-2 -5 -13 -9 -11 -17 -25 -17 -32 0 -6 -7 -14 -15 -17 -12 -5 -13 -9 -4 -20 7
-8 9 -17 5 -21 -3 -3 -6 -1 -6 5 0 7 -5 12 -10 12 -7 0 -7 -7 0 -21 7 -11 9
-23 6 -27 -3 -3 -6 0 -6 6 0 7 -7 12 -16 12 -13 0 -12 -4 5 -26 24 -31 29 -19
-99 -234 -47 -80 -91 -157 -98 -172 l-11 -27 2442 3 c1343 2 2447 4 2452 5 6
0 90 -1 188 -3 97 -2 180 0 182 4 5 7 -52 124 -75 155 -4 6 -25 44 -47 85 -22
41 -50 91 -61 110 -11 19 -40 71 -63 115 -23 44 -45 85 -49 90 -7 10 -64 116
-116 215 -16 30 -31 57 -34 60 -3 3 -36 66 -74 140 -38 74 -82 160 -99 190
-16 30 -41 77 -55 105 -14 27 -37 68 -51 90 -14 22 -37 63 -51 90 -14 28 -38
71 -54 97 -15 27 -25 48 -22 48 3 0 24 -32 47 -72 23 -40 56 -91 73 -114 17
-23 51 -75 76 -115 25 -41 65 -101 90 -134 25 -33 54 -77 65 -97 21 -41 35
-49 35 -20 0 9 -12 28 -26 41 -14 13 -32 38 -41 55 -9 16 -22 36 -30 44 -26
26 -52 90 -63 153 -27 157 -32 211 -21 222 8 8 11 8 11 -1 0 -7 9 -12 19 -12
11 0 23 -5 27 -12 5 -8 2 -9 -11 -4 -15 5 -16 4 -5 -9 7 -8 24 -14 39 -14 17
1 20 3 8 6 -9 2 -15 9 -11 14 3 5 10 7 15 4 5 -3 6 1 3 9 -3 9 -9 15 -12 14
-21 -2 -42 3 -42 12 0 5 7 6 17 3 38 -15 -1 18 -50 42 -133 64 -337 180 -384
219 -56 46 -240 182 -353 260 -61 42 -69 52 -119 151 -29 59 -51 108 -48 111
2 3 25 -8 50 -23 95 -59 365 -226 427 -265 162 -102 503 -288 528 -288 7 0 15
8 18 18 3 9 10 26 15 37 17 38 80 243 115 373 17 63 10 81 -43 113 -21 13 -42
29 -48 35 -5 7 -30 23 -55 35 -25 12 -66 37 -93 56 -26 18 -52 33 -57 33 -6 0
-10 4 -10 8 0 5 -15 16 -32 26 -18 9 -64 35 -103 57 -38 22 -85 47 -104 55
-37 17 -260 163 -302 198 -22 19 -92 61 -272 165 -23 13 -44 27 -47 31 -3 3
-36 19 -75 35 -78 32 -107 52 -60 41 17 -4 32 -12 33 -17 2 -5 16 -9 31 -9 16
0 38 -9 51 -20 27 -24 40 -25 40 -5 0 8 5 15 10 15 6 0 10 -4 10 -9 0 -5 15
-13 33 -16 17 -4 38 -12 45 -18 26 -20 24 4 -2 28 -25 23 -33 27 -52 24 -4 0
-10 3 -13 8 -14 19 -67 47 -86 45 -15 -2 -16 0 -7 6 14 9 9 12 -162 103 -77
40 -138 81 -131 87 5 6 219 -102 297 -150 59 -36 71 -43 205 -117 51 -28 147
-84 215 -125 68 -40 161 -94 208 -118 172 -91 334 -180 384 -212 28 -18 62
-38 74 -45 40 -21 23 -5 -30 30 -83 53 -120 90 -107 106 9 9 8 13 0 13 -22 0
-11 72 19 122 16 26 30 58 30 69 0 20 50 183 75 244 7 17 20 53 30 80 9 28 30
76 46 107 16 31 29 63 29 70 0 8 9 31 20 53 11 22 20 47 20 57 0 10 7 18 15
18 8 0 15 8 15 18 0 9 6 29 14 44 8 15 17 40 21 57 4 17 10 29 15 26 5 -3 11
4 15 15 8 24 30 26 39 4 8 -21 -4 -95 -15 -88 -5 3 -6 -3 -2 -12 3 -10 2 -15
-3 -12 -5 4 -9 -6 -9 -20 0 -15 -4 -47 -7 -72 -7 -44 -7 -44 6 -15 8 17 18 48
23 70 6 22 20 64 32 93 12 29 17 51 12 48 -5 -3 -7 3 -4 14 3 11 10 17 16 13
6 -4 8 2 5 15 -4 12 -3 22 2 22 4 0 14 15 21 33 17 42 36 61 43 44 2 -6 2 4
-1 23 -4 28 -2 32 7 20 10 -12 11 -11 7 7 -6 27 9 41 16 16 4 -15 5 -15 6 2 1
11 12 42 26 69 14 27 25 56 25 64 0 8 9 31 19 51 11 20 34 69 53 109 l33 74
40 -6 c56 -7 156 4 148 17 -3 6 -1 7 6 3 6 -4 46 -1 89 8 155 30 238 45 286
52 34 5 44 9 35 16 -10 7 -8 8 7 3 12 -3 74 1 138 10 152 20 205 19 228 -2 12
-10 18 -12 18 -4 0 8 7 10 20 6 12 -4 27 -1 35 5 8 7 31 12 51 13 47 1 74 34
131 157 63 136 70 153 76 175 4 18 5 18 6 -2 1 -26 -34 -121 -90 -241 -22 -45
-39 -86 -39 -91 0 -5 -12 -19 -27 -30 -16 -12 -23 -21 -18 -20 31 4 33 -4 6
-31 -17 -16 -27 -31 -23 -34 5 -3 31 -3 58 -1 35 3 53 10 62 24 23 34 52 65
52 55 0 -13 -49 -86 -69 -103 -14 -12 -14 -13 4 -6 11 4 43 13 70 20 28 8 63
18 78 24 16 6 43 11 61 11 17 0 36 4 41 9 12 10 108 41 224 71 46 12 93 25
105 30 83 31 263 64 336 63 29 -1 32 1 18 11 -14 10 -13 15 17 43 34 33 117
163 157 248 12 28 29 54 36 58 6 4 12 14 12 22 0 8 6 12 14 9 7 -3 16 3 20 13
6 18 52 103 60 111 12 12 -66 -303 -81 -326 -32 -52 5 -33 76 38 72 72 223
199 279 237 33 22 91 54 130 73 40 18 72 37 72 41 0 5 20 17 44 27 24 11 47
25 50 31 4 6 16 11 27 11 10 0 19 5 19 10 0 6 5 10 12 10 23 0 188 85 188 97
0 7 9 17 19 22 11 6 27 35 36 66 12 35 23 55 33 55 9 0 35 9 58 20 23 12 65
25 94 29 28 5 56 13 63 20 6 6 19 11 29 11 26 0 71 34 153 114 50 48 96 82
158 113 60 31 91 53 97 69 5 13 14 24 19 24 15 0 47 61 61 115 16 66 39 113
72 150 16 16 28 37 28 47 0 9 14 46 30 83 39 87 40 156 4 246 -38 95 -70 164
-101 211 -15 24 -26 47 -25 51 1 5 -1 7 -5 4 -11 -6 -62 50 -54 59 3 4 -2 4
-11 1 -11 -4 -15 -2 -13 6 3 7 -11 23 -30 37 -19 14 -35 31 -35 38 0 8 -5 10
-12 6 -8 -5 -9 -2 -5 9 3 9 3 16 -1 14 -7 -2 -64 39 -62 45 3 9 -13 37 -20 33
-4 -2 -17 7 -28 20 -12 14 -19 25 -16 25 3 0 -7 16 -22 35 -15 20 -24 38 -20
42 9 9 -14 33 -27 27 -11 -4 -57 83 -57 107 0 5 -9 20 -21 32 -12 13 -18 30
-15 42 5 19 5 20 -9 1 -13 -18 -14 -17 -10 12 2 18 -1 35 -7 38 -7 5 -8 2 -3
-7 8 -12 6 -12 -8 0 -9 7 -17 24 -17 37 0 15 -6 24 -16 24 -12 0 -15 7 -10 28
3 15 3 22 0 15 -4 -10 -8 -10 -19 0 -9 8 -10 16 -3 25 7 8 7 12 -1 12 -6 0
-10 5 -8 12 1 7 -5 12 -13 13 -8 0 -15 7 -16 15 0 19 -20 66 -34 83 -6 6 -21
28 -33 47 -15 23 -30 34 -42 32 -13 -3 -16 1 -11 14 4 10 4 15 0 12 -3 -4 -17
13 -29 37 -22 40 -148 171 -198 203 -12 8 -26 20 -32 26 -5 6 -26 23 -45 37
-19 15 -48 39 -65 53 -16 14 -33 26 -38 26 -4 0 -30 23 -58 50 -28 28 -53 50
-55 50 -7 0 25 -49 61 -95 52 -66 82 -126 96 -190 7 -33 16 -68 21 -77 6 -13
5 -18 -6 -18 -7 0 -17 12 -21 27 -5 21 -8 24 -15 13 -7 -12 -10 -11 -16 5 -7
18 -8 18 -16 -1 -6 -13 -7 -6 -4 21 2 22 2 34 -1 27 -3 -7 -17 11 -32 40 -43
83 -183 268 -202 268 -5 0 -9 5 -9 12 0 9 3 9 12 0 7 -7 18 -12 25 -12 7 0 2
10 -11 23 -12 12 -28 32 -34 42 -10 17 -13 18 -22 5 -9 -14 -15 -7 -11 13 1 5
-4 7 -11 5 -7 -3 -29 13 -50 35 -35 38 -36 41 -21 64 15 23 14 25 -67 103 -45
44 -95 88 -111 97 -16 10 -29 20 -29 24 0 4 -26 26 -57 50 -32 24 -98 82 -148
130 -49 48 -103 99 -119 112 -24 20 -30 33 -31 70 -2 43 -1 45 18 35 17 -9
165 -157 505 -505 43 -45 56 -52 68 -43 19 17 18 34 -2 26 -14 -5 -15 -4 -4 9
11 13 9 20 -10 40 -13 14 -28 25 -33 25 -5 0 -18 12 -29 26 -12 14 -27 23 -35
20 -8 -3 -11 -1 -8 4 9 15 -31 93 -64 127 -48 49 -103 132 -95 144 4 7 3 9 -3
6 -5 -4 -27 17 -48 46 -57 79 -94 104 -168 111 -64 7 -112 25 -72 27 15 0 16
2 5 6 -27 10 -30 28 -9 44 19 14 20 18 8 37 -8 12 -21 24 -29 27 -8 3 -20 15
-25 27 -6 12 -23 25 -40 30 -43 11 -135 18 -135 9 0 -7 40 -58 78 -99 l24 -25
-24 6 c-13 4 -29 2 -37 -2 -18 -12 -54 9 -131 74 -37 32 -74 55 -87 55 -13 0
-23 5 -23 10 0 6 -17 10 -39 10 -34 0 -40 4 -51 30 -7 17 -24 39 -37 50 -14
11 -22 24 -18 29 3 6 0 8 -8 5 -9 -3 -16 3 -20 15 -3 12 -1 19 4 15 5 -3 9 0
9 5 0 6 -9 16 -20 23 -11 7 -20 21 -20 30 0 10 -4 18 -10 18 -5 0 -10 9 -10
19 0 10 -7 22 -16 25 -8 3 -13 10 -10 14 3 5 -1 18 -9 28 -15 19 -15 19 -8 -1
6 -17 5 -18 -9 -5 -8 8 -13 21 -11 28 4 8 0 10 -12 6 -14 -6 -16 -3 -11 14 4
12 2 23 -5 28 -8 4 -9 3 -5 -4 4 -7 1 -18 -6 -25 -10 -12 -22 0 -69 66 -32 44
-70 88 -86 98 -15 10 -24 19 -19 19 5 0 -12 14 -37 31 -77 51 -68 62 12 15 32
-19 33 -19 24 -1 -7 12 -7 30 -1 52 5 18 6 39 2 46 -4 6 1 4 12 -5 19 -16 20
-16 32 2 7 11 12 27 12 36 0 8 7 22 15 30 8 9 15 13 15 9 0 -4 7 0 15 9 8 8
12 22 9 30 -5 12 -2 15 10 10 9 -3 16 -1 16 5 0 6 9 20 20 31 14 14 19 29 15
48 -3 15 -2 21 1 15 12 -26 25 -12 19 20 -4 23 -3 28 4 17 12 -17 10 -18 42
43 13 26 28 47 33 47 4 0 6 7 3 14 -4 11 -1 13 10 9 13 -5 15 -2 10 11 -4 10
-3 15 4 11 16 -11 40 16 33 37 -3 12 -1 18 7 16 8 -2 21 12 30 29 9 18 23 40
30 50 12 14 12 16 0 8 -10 -5 -12 -4 -7 3 4 7 14 12 21 12 18 0 85 58 85 73 0
6 19 31 43 56 23 25 34 39 25 32 -11 -8 -18 -9 -18 -3 0 6 9 14 20 17 11 3 20
13 20 21 0 8 4 13 10 9 16 -10 47 30 54 69 6 31 3 40 -16 57 -13 11 -17 17 -9
14 9 -5 8 1 -4 19 -10 14 -21 26 -27 26 -5 0 -19 10 -31 21 -12 12 -15 19 -7
14 8 -4 -9 16 -38 45 -45 44 -57 51 -80 46 -20 -5 -23 -4 -12 4 13 9 13 11 0
20 -55 37 -168 40 -225 6z m143 -3 c-10 -2 -26 -2 -35 0 -10 3 -2 5 17 5 19 0
27 -2 18 -5z m-1 -19 c-3 -3 -12 -4 -19 -1 -8 3 -5 6 6 6 11 1 17 -2 13 -5z
m40 -10 c-3 -3 -12 -4 -19 -1 -8 3 -5 6 6 6 11 1 17 -2 13 -5z m81 -458 c-7
-8 -15 -12 -17 -11 -5 6 10 25 20 25 5 0 4 -6 -3 -14z m-799 -561 c-8 -7 -108
-9 -116 -2 -3 4 22 7 57 7 35 0 61 -2 59 -5z m-116 -88 c-25 -41 -47 -49 -33
-11 14 37 30 55 42 48 5 -3 1 -19 -9 -37z m342 -7 c3 -5 1 -10 -4 -10 -6 0
-11 5 -11 10 0 6 2 10 4 10 3 0 8 -4 11 -10z m-415 -40 c0 -5 -5 -10 -11 -10
-5 0 -7 5 -4 10 3 6 8 10 11 10 2 0 4 -4 4 -10z m-107 -214 c3 -8 -3 -22 -14
-32 -17 -15 -19 -15 -19 -1 0 39 22 61 33 33z m-183 -196 c-6 -11 -8 -26 -4
-32 4 -7 3 -8 -4 -4 -7 4 -12 1 -13 -6 0 -9 -2 -10 -5 -1 -3 6 2 23 12 37 19
31 29 35 14 6z m-7261 -241 c30 -18 33 -22 18 -31 -11 -6 -30 -5 -54 1 -20 6
-40 8 -45 5 -14 -9 -9 4 9 26 22 25 30 25 72 -1z m-79 -43 c0 -2 -9 -6 -20 -9
-11 -3 -18 -1 -14 4 5 9 34 13 34 5z m7666 -171 c-17 -13 -18 -15 -3 -15 25 0
21 -15 -8 -30 -20 -10 -28 -11 -37 -2 -18 18 -28 15 -28 -8 0 -21 -15 -27 -25
-10 -3 6 -1 10 6 10 6 0 9 8 6 20 -4 16 2 22 36 30 23 6 47 13 52 15 20 7 20
4 1 -10z m594 -75 c0 -5 -2 -10 -4 -10 -3 0 -8 5 -11 10 -3 6 -1 10 4 10 6 0
11 -4 11 -10z m-557 -7 c-7 -2 -21 -2 -30 0 -10 3 -4 5 12 5 17 0 24 -2 18 -5z
m770 -40 c-7 -2 -19 -2 -25 0 -7 3 -2 5 12 5 14 0 19 -2 13 -5z m-758 -61 c-8
-2 -15 -8 -15 -14 0 -6 -3 -9 -6 -6 -3 3 0 15 7 27 10 14 15 17 21 8 4 -7 1
-13 -7 -15z m709 17 c-6 -11 -31 -12 -37 -1 -3 4 6 8 19 8 13 1 21 -2 18 -7z
m26 -29 c0 -5 -4 -10 -9 -10 -6 0 -13 5 -16 10 -3 6 1 10 9 10 9 0 16 -4 16
-10z m-660 -9 c0 -5 -10 -11 -22 -15 -20 -5 -21 -8 -8 -17 13 -9 12 -10 -3 -5
-13 4 -20 0 -24 -14 -6 -24 -19 -26 -27 -4 -8 22 -8 24 8 24 9 0 12 7 9 18 -4
15 2 19 31 20 20 1 36 -2 36 -7z m-8160 -60 c0 -12 -20 -25 -27 -18 -7 7 6 27
18 27 5 0 9 -4 9 -9z m10005 -211 c3 -5 1 -10 -4 -10 -6 0 -11 5 -11 10 0 6 2
10 4 10 3 0 8 -4 11 -10z m-9665 -70 c0 -5 -5 -10 -10 -10 -6 0 -22 -12 -37
-26 -35 -35 -41 -23 -6 14 28 31 53 41 53 22z m-105 -89 c-3 -6 -11 -11 -16
-11 -5 0 -4 6 3 14 14 16 24 13 13 -3z m9870 -121 c3 -5 1 -10 -4 -10 -6 0
-11 5 -11 10 0 6 2 10 4 10 3 0 8 -4 11 -10z m-10080 -80 c-24 -26 -32 -18 -9
9 10 11 20 18 23 16 2 -3 -4 -14 -14 -25z m9675 -90 c0 -5 -4 -10 -10 -10 -5
0 -10 5 -10 10 0 6 5 10 10 10 6 0 10 -4 10 -10z m1104 -416 c3 -8 2 -12 -4
-9 -6 3 -10 10 -10 16 0 14 7 11 14 -7z m-10903 -35 c-19 -16 -36 -29 -40 -29
-3 0 -26 -18 -51 -40 -24 -22 -48 -40 -52 -40 -4 0 -17 -9 -28 -20 -11 -11
-20 -16 -20 -10 0 5 16 22 36 37 20 15 68 54 107 85 71 58 110 72 48 17z
m10026 -50 c14 -27 30 -49 35 -49 4 0 8 -5 8 -10 0 -6 10 -24 22 -40 12 -16
19 -32 17 -35 -7 -7 -125 155 -134 185 -7 22 -6 23 9 11 9 -7 28 -35 43 -62z
m-10877 27 c0 -3 -4 -8 -10 -11 -5 -3 -10 -1 -10 4 0 6 5 11 10 11 6 0 10 -2
10 -4z m-169 -83 c-12 -20 -14 -14 -5 12 4 9 9 14 11 11 3 -2 0 -13 -6 -23z
m8 -80 c-18 -36 -39 -67 -46 -70 -8 -3 -11 -14 -8 -27 5 -17 4 -18 -4 -6 -10
13 -11 12 -11 -5 1 -16 -33 -66 -50 -75 -11 -6 -20 -18 -20 -26 0 -8 5 -12 10
-9 6 3 10 -1 10 -9 0 -8 -4 -18 -10 -21 -5 -3 -10 -1 -10 4 0 6 -5 11 -11 11
-6 0 -9 -9 -6 -20 3 -11 2 -20 -2 -20 -4 0 -18 -29 -31 -65 -16 -43 -27 -61
-33 -52 -5 7 -6 2 -3 -15 4 -17 1 -30 -7 -35 -19 -11 -39 -51 -32 -63 3 -6 1
-10 -4 -10 -6 0 -11 -6 -11 -12 1 -7 10 -2 22 12 24 28 24 30 -14 -82 -13 -37
-27 -70 -31 -74 -4 -4 -7 -20 -7 -35 0 -39 -22 -129 -31 -129 -4 0 -8 -33 -9
-72 -1 -40 -3 -89 -5 -108 -17 -142 -17 -150 -6 -150 6 0 10 -12 10 -27 -1
-21 -3 -23 -6 -9 -4 17 -8 14 -19 -14 -20 -46 -27 -32 -13 25 8 33 9 79 3 159
-16 213 -12 292 20 386 34 103 104 251 180 382 31 53 56 102 56 107 0 6 3 11
8 11 4 0 12 8 17 19 35 66 59 107 64 111 4 3 20 27 36 55 40 70 44 37 4 -42z
m-110 -73 c-12 -22 -25 -38 -27 -35 -5 4 37 75 44 75 3 0 -5 -18 -17 -40z
m-58 -89 c-12 -17 -26 -44 -32 -60 -9 -24 -13 -28 -24 -18 -7 7 -11 16 -8 21
3 4 10 2 15 -5 7 -10 8 -9 6 7 -2 11 10 37 26 57 35 43 48 42 17 -2z m-61
-102 c0 -6 -4 -7 -10 -4 -5 3 -10 11 -10 16 0 6 5 7 10 4 6 -3 10 -11 10 -16z
m7180 -34 c10 -12 10 -15 0 -15 -7 0 -10 -7 -6 -15 6 -18 1 -19 -25 -5 -25 14
-25 50 0 50 10 0 24 -7 31 -15z m4568 -310 c55 -9 53 -21 -4 -30 -51 -7 -58
-3 -68 40 -7 28 -7 29 11 13 10 -9 37 -19 61 -23z m-11054 -67 c-3 -10 -1 -18
5 -18 14 0 19 -32 8 -57 -14 -32 -65 -39 -134 -18 -18 6 44 68 70 70 11 1 23
7 25 14 3 9 -2 11 -19 6 -19 -5 -21 -4 -9 4 8 6 23 8 33 5 16 -5 18 -2 12 18
-5 18 -4 20 4 8 6 -8 8 -23 5 -32z m11586 20 c0 -11 -32 -10 -50 2 -11 8 -7
10 18 8 17 -1 32 -6 32 -10z m-5025 -57 c-3 -5 -1 -12 5 -16 16 -10 12 -65 -4
-65 -19 0 -32 70 -14 81 17 11 20 11 13 0z m-6485 -47 c0 -2 -11 -3 -24 -2
-14 1 -23 5 -20 9 4 7 44 0 44 -7z m-170 -84 c0 -53 -2 -60 -20 -60 -10 0 -23
-7 -28 -16 -16 -29 -42 22 -42 83 l0 53 45 0 45 0 0 -60z m6620 14 c0 -14 -4
-23 -9 -20 -5 3 -7 15 -4 26 7 28 13 25 13 -6z m4987 20 c-3 -3 -12 -4 -19 -1
-8 3 -5 6 6 6 11 1 17 -2 13 -5z m-5132 -204 c3 -5 1 -10 -4 -10 -6 0 -11 5
-11 10 0 6 2 10 4 10 3 0 8 -4 11 -10z m-4817 -81 c-3 -8 -7 -3 -11 10 -4 17
-3 21 5 13 5 -5 8 -16 6 -23z m5035 3 c-3 -12 -9 -22 -14 -22 -12 0 -11 7 2
32 13 25 20 19 12 -10z m-4258 -30 c-6 -7 -35 18 -35 31 0 5 9 2 20 -8 11 -10
18 -20 15 -23z m405 8 c0 -5 -2 -10 -4 -10 -3 0 -8 5 -11 10 -3 6 -1 10 4 10
6 0 11 -4 11 -10z m-1355 -16 c-9 -9 -19 -13 -23 -10 -3 4 0 11 8 16 24 15 33
11 15 -6z m980 -14 c3 -5 2 -10 -4 -10 -6 0 -7 -7 -4 -17 4 -10 2 -14 -5 -9
-6 3 -10 15 -9 26 1 22 12 26 22 10z m4285 0 c0 -5 -7 -10 -15 -10 -8 0 -15 5
-15 10 0 6 7 10 15 10 8 0 15 -4 15 -10z m-4353 -82 c-3 -7 -5 -2 -5 12 0 14
2 19 5 13 2 -7 2 -19 0 -25z m2153 2 c0 -5 -8 -10 -17 -10 -15 0 -16 2 -3 10
19 12 20 12 20 0z m-4255 -71 c104 -11 172 -23 235 -42 44 -13 42 -13 -50 -9
-52 3 -96 8 -98 13 -2 5 -13 9 -23 9 -13 0 -18 -4 -13 -12 5 -8 -4 -9 -32 -5
-21 4 -52 7 -68 7 -20 0 -27 4 -23 14 4 10 -14 4 -53 -15 -62 -31 -102 -37
-97 -16 1 6 -5 11 -13 9 -26 -5 43 48 69 54 14 3 31 7 36 9 6 2 17 1 25 -2 8
-2 56 -9 105 -14z m7261 -16 c-7 -7 -26 7 -26 19 0 6 6 6 15 -2 9 -7 13 -15
11 -17z m-6943 -50 c-7 -2 -19 -2 -25 0 -7 3 -2 5 12 5 14 0 19 -2 13 -5z
m2485 -69 c-13 -13 -45 -17 -180 -19 -105 -2 -173 -7 -187 -15 -24 -12 -91 -6
-91 9 0 12 103 21 244 22 67 1 132 5 146 9 14 4 38 8 55 9 27 1 28 0 13 -15z
m3203 -11 c-12 -20 -14 -14 -5 12 4 9 9 14 11 11 3 -2 0 -13 -6 -23z m1159 7
c0 -5 -5 -10 -11 -10 -5 0 -7 5 -4 10 3 6 8 10 11 10 2 0 4 -4 4 -10z m-4860
-36 c-25 -15 -24 -15 15 -10 l40 5 -35 -10 c-37 -11 -140 -48 -224 -80 -55
-21 -69 -18 -40 9 55 51 173 99 244 101 l25 0 -25 -15z m4790 -54 c0 -5 -5
-10 -11 -10 -5 0 -7 5 -4 10 3 6 8 10 11 10 2 0 4 -4 4 -10z m-1016 -12 c-3
-7 -17 -22 -32 -33 l-27 -20 25 32 c25 32 44 43 34 21z m-2629 -83 l50 -14
-60 6 c-33 3 -62 7 -63 8 -2 2 -22 -3 -44 -11 -51 -18 -60 -12 -16 9 39 19 66
20 133 2z m3160 -33 c-3 -3 -11 0 -18 7 -9 10 -8 11 6 5 10 -3 15 -9 12 -12z
m-3325 -5 c0 -2 -9 -15 -21 -28 -12 -13 -41 -50 -66 -81 -46 -61 -68 -78 -38
-30 42 64 125 157 125 139z m3355 -17 c3 -6 -1 -7 -9 -4 -18 7 -21 14 -7 14 6
0 13 -4 16 -10z m3604 -27 c24 -66 23 -69 -3 -18 -29 57 -29 55 -18 55 4 0 14
-17 21 -37z m-6889 -48 c-7 -9 -15 -13 -18 -10 -3 2 1 11 8 20 7 9 15 13 18
10 3 -2 -1 -11 -8 -20z m605 -14 c-3 -12 -10 -21 -15 -21 -4 0 -3 11 3 24 14
29 22 27 12 -3z m6325 -46 c0 -5 -5 -3 -10 5 -5 8 -10 20 -10 25 0 6 5 3 10
-5 5 -8 10 -19 10 -25z m-6828 -120 c-30 -18 -63 -41 -73 -51 -10 -9 -19 -12
-19 -6 0 12 46 47 94 73 54 29 53 20 -2 -16z m6875 -47 c-3 -7 -5 -2 -5 12 0
14 2 19 5 13 2 -7 2 -19 0 -25z m10 -50 c-3 -8 -6 -5 -6 6 -1 11 2 17 5 13 3
-3 4 -12 1 -19z m-7007 -2 c0 -2 -8 -10 -17 -17 -16 -13 -17 -12 -4 4 13 16
21 21 21 13z m-42 -61 c-6 -14 -13 -24 -14 -22 -6 6 9 47 17 47 5 0 3 -11 -3
-25z m-3871 9 c-3 -3 -12 -4 -19 -1 -8 3 -5 6 6 6 11 1 17 -2 13 -5z m90 -30
c-3 -3 -12 -4 -19 -1 -8 3 -5 6 6 6 11 1 17 -2 13 -5z m480 -170 c-3 -3 -12
-4 -19 -1 -8 3 -5 6 6 6 11 1 17 -2 13 -5z m3241 -29 c-3 -3 -9 2 -12 12 -6
14 -5 15 5 6 7 -7 10 -15 7 -18z m32 14 c0 -6 7 -17 15 -25 8 -9 15 -21 14
-27 0 -9 -2 -8 -6 1 -2 6 -13 12 -23 12 -13 0 -17 7 -16 25 1 24 16 37 16 14z
m-2809 -87 c-18 -2 -37 0 -42 5 -5 5 11 6 34 3 41 -4 41 -5 8 -8z m296 -78
c-3 -3 -12 -4 -19 -1 -8 3 -5 6 6 6 11 1 17 -2 13 -5z m60 -10 c-3 -3 -12 -4
-19 -1 -8 3 -5 6 6 6 11 1 17 -2 13 -5z m40 0 c-3 -3 -12 -4 -19 -1 -8 3 -5 6
6 6 11 1 17 -2 13 -5z m48 -14 c13 -6 15 -9 5 -9 -8 0 -22 4 -30 9 -18 12 -2
12 25 0z m75 -20 c8 -5 11 -10 5 -10 -5 0 -17 5 -25 10 -8 5 -10 10 -5 10 6 0
17 -5 25 -10z m4020 -184 c0 -8 -11 -17 -25 -20 -14 -4 -25 -11 -25 -16 0 -5
-8 -7 -17 -4 -10 3 -7 -1 6 -9 16 -9 20 -17 12 -21 -6 -4 -9 -11 -6 -16 6 -10
-154 -100 -176 -100 -10 1 -8 5 5 15 20 15 20 15 0 16 -18 0 -18 1 1 9 14 6
15 9 5 10 -10 0 -7 7 10 20 59 47 -73 -20 -155 -78 -129 -92 -179 -135 -331
-281 -107 -103 -116 -114 -112 -143 5 -34 -14 -61 -51 -73 -16 -5 -21 -2 -21
12 0 11 -5 24 -11 30 -25 25 134 174 370 347 14 11 40 31 56 46 29 26 108 83
229 163 66 44 192 105 219 106 9 1 17 -5 17 -13z m327 -126 c117 -61 116 -60
100 -106 -8 -22 -18 -47 -22 -56 -5 -13 -2 -18 11 -19 11 0 13 -3 7 -6 -7 -2
-39 7 -70 22 -70 32 -191 75 -211 75 -8 0 -23 10 -33 21 -14 16 -16 26 -8 40
14 27 21 24 13 -6 -4 -16 -2 -25 6 -25 6 0 8 5 5 10 -3 6 1 10 9 10 20 0 56
30 56 47 0 7 5 13 11 13 5 0 7 5 4 10 -14 23 49 7 122 -30z m-302 -20 c-6 -10
15 -50 28 -50 4 0 3 9 -3 21 -22 41 -4 39 26 -3 43 -62 99 -198 148 -361 50
-167 67 -251 129 -641 18 -112 25 -140 39 -142 27 -4 99 -58 160 -120 60 -62
64 -78 30 -116 -20 -24 -37 -23 -67 4 -13 11 -42 32 -65 45 l-40 24 0 -23 c0
-13 7 -53 15 -91 26 -126 29 -184 10 -213 -9 -14 -18 -24 -20 -22 -4 4 -37
205 -60 362 -10 65 -14 129 -10 161 10 74 -45 438 -63 421 -2 -3 -8 -20 -12
-38 -7 -29 -8 -30 -9 -7 -1 31 -59 267 -71 289 -5 9 -25 72 -45 141 -33 114
-49 154 -121 305 -28 60 -29 64 -8 64 8 0 13 -4 9 -10z m4135 -154 c0 -2 -7
-7 -16 -10 -8 -3 -12 -2 -9 4 6 10 25 14 25 6z m-1050 -111 c0 -2 -6 -5 -13
-8 -8 -3 -14 1 -14 8 0 7 6 11 14 8 7 -3 13 -6 13 -8z m-3786 -136 c-24 -26
-109 -89 -120 -89 -5 1 2 10 16 21 14 12 45 39 69 60 45 40 69 46 35 8z m1711
-88 c-6 -5 -25 10 -25 20 0 5 6 4 14 -3 8 -7 12 -15 11 -17z m50 -55 c16 -23
14 -27 -31 -90 -26 -36 -50 -66 -53 -66 -4 0 -11 17 -18 38 -11 35 -10 38 19
67 17 17 37 40 46 53 18 27 18 27 37 -2z m1538 -121 c-3 -9 -8 -14 -10 -11 -3
3 -2 9 2 15 9 16 15 13 8 -4z m-3162 -254 c-7 -16 -11 -40 -8 -53 4 -20 5 -19
7 7 3 35 7 15 34 -184 10 -69 23 -143 30 -165 7 -23 21 -79 31 -126 9 -47 28
-124 41 -173 14 -48 27 -108 31 -132 3 -25 10 -48 14 -51 11 -6 12 -24 2 -24
-12 0 -31 48 -28 68 1 9 0 11 -2 5 -6 -19 -21 -16 -26 5 -4 15 -5 15 -6 0 0
-9 4 -20 9 -23 6 -3 9 -21 9 -38 -1 -20 -3 -24 -6 -12 -2 11 -8 29 -12 40 -42
99 -94 302 -111 435 -6 47 -20 128 -31 182 -10 53 -19 116 -19 141 0 45 35
145 47 134 3 -4 0 -20 -6 -36z m-62 -240 c12 -8 13 -12 2 -25 -8 -9 -19 -16
-25 -15 -31 4 -45 -2 -40 -16 5 -12 10 -13 20 -4 11 9 14 8 14 -4 0 -21 -57
-80 -70 -72 -15 9 -2 25 14 19 16 -6 31 29 21 46 -9 14 -25 12 -59 -5 -38 -20
-44 -19 -20 3 34 32 106 82 118 82 6 0 17 -4 25 -9z m1362 -37 c38 -19 31 -30
-11 -16 l-31 11 5 -37 c3 -20 3 -28 0 -17 -4 11 -11 26 -16 32 -12 15 -4 43
12 43 6 0 25 -7 41 -16z m-5 -80 c-3 -9 -2 -12 5 -8 6 3 20 -3 32 -14 12 -10
35 -23 52 -26 16 -4 32 -12 35 -17 4 -5 17 -10 31 -11 13 -1 33 -10 44 -20 18
-18 18 -18 -16 -18 -23 0 -30 3 -20 9 16 10 7 17 -39 25 l-35 6 30 -14 c17 -8
23 -15 15 -15 -10 -1 -8 -5 7 -16 12 -8 29 -12 37 -9 9 3 23 1 31 -6 8 -7 29
-15 46 -19 26 -5 29 -9 18 -18 -11 -9 -22 -7 -49 5 -19 9 -39 17 -45 17 -5 1
-17 5 -25 8 -8 4 -44 17 -78 30 -56 21 -66 29 -81 63 -13 29 -15 42 -7 51 15
17 19 16 12 -3z m-1472 -30 c3 -8 2 -12 -4 -9 -6 3 -10 10 -10 16 0 14 7 11
14 -7z m1606 -4 c0 -5 -4 -10 -10 -10 -5 0 -10 5 -10 10 0 6 5 10 10 10 6 0
10 -4 10 -10z m100 -46 c0 -2 -9 0 -20 6 -11 6 -20 13 -20 16 0 2 9 0 20 -6
11 -6 20 -13 20 -16z m-1772 -26 c-8 -12 -21 -24 -29 -26 -8 -3 -3 7 10 22 30
32 39 34 19 4z m1792 -18 c0 -5 -4 -10 -9 -10 -6 0 -13 5 -16 10 -3 6 1 10 9
10 9 0 16 -4 16 -10z m276 -117 c-6 -6 -36 9 -36 18 0 5 9 4 20 -3 10 -7 18
-14 16 -15z m-2326 -93 c0 -5 -4 -10 -10 -10 -5 0 -10 5 -10 10 0 6 5 10 10
10 6 0 10 -4 10 -10z m2845 -120 c3 -5 2 -10 -4 -10 -5 0 -13 5 -16 10 -3 6
-2 10 4 10 5 0 13 -4 16 -10z m-2186 -150 c0 -10 -3 -8 -9 5 -12 27 -12 43 0
25 5 -8 9 -22 9 -30z m43 15 c3 -13 2 -22 -2 -20 -11 7 -20 45 -10 45 4 0 10
-11 12 -25z m-25 -17 c-3 -8 -6 -5 -6 6 -1 11 2 17 5 13 3 -3 4 -12 1 -19z
m106 -205 c-19 -7 -15 -25 13 -58 15 -16 23 -24 19 -16 -5 9 -3 12 6 9 8 -3
13 -13 11 -22 -2 -9 1 -15 5 -14 5 2 33 -24 63 -57 111 -121 119 -128 145
-123 31 6 32 -5 2 -21 -16 -8 -30 -9 -47 -2 -31 12 -95 71 -142 131 -35 43
-108 159 -108 170 0 3 10 6 23 7 12 0 16 -1 10 -4z m2104 -1445 c-3 -8 -6 -5
-6 6 -1 11 2 17 5 13 3 -3 4 -12 1 -19z"/>
<path d="M592 6830 c0 -14 2 -19 5 -12 2 6 2 18 0 25 -3 6 -5 1 -5 -13z"/>
<path d="M6811 3863 c-1 -6 -4 -20 -7 -30 -5 -17 -5 -17 6 0 6 10 9 23 6 30
-3 9 -5 9 -5 0z"/>
<path d="M6891 3374 c0 -11 3 -14 6 -6 3 7 2 16 -1 19 -3 4 -6 -2 -5 -13z"/>
<path d="M6922 3350 c0 -14 2 -19 5 -12 2 6 2 18 0 25 -3 6 -5 1 -5 -13z"/>
<path d="M6941 3244 c0 -11 3 -14 6 -6 3 7 2 16 -1 19 -3 4 -6 -2 -5 -13z"/>
<path d="M6961 2934 c0 -11 3 -14 6 -6 3 7 2 16 -1 19 -3 4 -6 -2 -5 -13z"/>
<path d="M5982 3520 c0 -19 2 -27 5 -17 2 9 2 25 0 35 -3 9 -5 1 -5 -18z"/>
<path d="M6000 3376 c0 -8 4 -17 9 -20 5 -4 7 3 4 14 -6 23 -13 26 -13 6z"/>
<path d="M2823 10993 c1 -18 6 -28 10 -24 4 4 3 18 -2 32 -9 23 -9 22 -8 -8z"/>
<path d="M2476 10971 c-3 -5 1 -11 9 -15 15 -6 29 7 18 18 -9 9 -21 8 -27 -3z"/>
<path d="M2770 10964 c0 -8 5 -12 10 -9 6 3 10 10 10 16 0 5 -4 9 -10 9 -5 0
-10 -7 -10 -16z"/>
<path d="M2786 10943 c-4 -9 -2 -21 4 -27 7 -7 10 -7 10 1 0 6 3 18 6 27 3 9
2 16 -4 16 -5 0 -13 -8 -16 -17z"/>
<path d="M2826 10947 c-11 -8 -19 -26 -19 -43 0 -39 28 -110 38 -95 3 7 1 18
-5 26 -10 12 -10 18 -1 29 7 8 9 25 5 40 -4 16 -2 26 5 26 6 0 12 -6 12 -12 1
-7 3 -23 4 -35 3 -27 24 -55 36 -47 5 3 9 0 9 -7 0 -7 3 -9 7 -6 3 4 -1 15
-10 24 -8 10 -18 29 -22 43 -3 14 -14 35 -23 48 -15 20 -20 21 -36 9z m8 -68
c-3 -5 -10 -7 -15 -3 -5 3 -7 10 -3 15 3 5 10 7 15 3 5 -3 7 -10 3 -15z"/>
<path d="M2604 10785 c-2 -21 0 -22 13 -10 8 8 11 19 8 25 -11 17 -20 11 -21
-15z"/>
<path d="M2854 10787 c3 -10 6 -23 6 -28 0 -5 5 -9 10 -9 6 0 10 7 10 15 0 7
8 19 18 24 15 9 15 10 0 11 -9 0 -19 -6 -21 -12 -4 -10 -8 -9 -17 2 -10 13
-11 12 -6 -3z"/>
<path d="M2928 10785 c-4 -11 -9 -31 -13 -45 -5 -21 -4 -22 5 -8 6 9 17 15 25
12 8 -4 15 -1 15 5 0 6 -4 11 -9 11 -5 0 -11 10 -13 23 -4 21 -4 21 -10 2z"/>
<path d="M2886 10725 c17 -54 27 -75 35 -75 5 0 9 -7 9 -15 0 -8 9 -32 20 -52
11 -21 20 -31 20 -23 0 9 -7 26 -16 38 -9 13 -13 29 -10 37 3 8 1 15 -4 15 -6
0 -10 7 -10 15 0 8 -4 15 -8 15 -5 0 -16 15 -26 33 -9 17 -14 23 -10 12z"/>
<path d="M2945 10710 c-10 -11 -14 -20 -9 -20 5 0 15 9 22 20 7 11 11 20 9 20
-2 0 -12 -9 -22 -20z"/>
<path d="M2995 10620 c-4 -26 -3 -46 5 -54 7 -10 8 -16 0 -21 -5 -3 -10 0 -10
7 0 7 -5 5 -12 -6 -8 -15 -2 -35 32 -104 39 -77 44 -83 52 -62 5 12 6 25 3 28
-3 3 -5 -1 -5 -9 0 -8 -6 -4 -16 9 -8 12 -13 31 -9 41 3 11 1 22 -4 26 -7 4
-8 -1 -5 -12 3 -10 -3 -3 -15 15 -25 39 -25 39 -6 58 10 10 12 22 6 37 -5 12
-6 37 -4 55 7 47 -4 39 -12 -8z"/>
<path d="M2971 10604 c0 -11 3 -14 6 -6 3 7 2 16 -1 19 -3 4 -6 -2 -5 -13z"/>
<path d="M3020 10595 c0 -8 4 -15 10 -15 5 0 7 7 4 15 -4 8 -8 15 -10 15 -2 0
-4 -7 -4 -15z"/>
<path d="M2730 10580 c-1 -3 -4 -18 -6 -35 -3 -25 -2 -27 7 -12 6 10 8 25 6
35 -3 9 -6 15 -7 12z"/>
<path d="M3046 10531 c-3 -5 3 -11 13 -14 14 -3 18 -1 14 9 -6 16 -19 18 -27
5z"/>
<path d="M3057 10484 c-11 -18 9 -37 28 -27 12 7 14 13 6 17 -6 4 -11 1 -12
-6 0 -7 -4 -4 -8 6 -4 11 -10 15 -14 10z"/>
<path d="M2790 10454 c0 -6 7 -19 15 -30 8 -10 14 -14 14 -9 0 6 -6 19 -14 29
-8 11 -15 15 -15 10z"/>
<path d="M2821 10455 c1 -19 18 -51 18 -35 0 8 -4 22 -9 30 -5 8 -9 11 -9 5z"/>
<path d="M2818 10365 c5 -46 21 -46 19 0 -1 19 -7 35 -12 35 -7 0 -9 -15 -7
-35z"/>
<path d="M2846 10384 c-8 -22 -8 -26 4 -19 14 9 13 -21 -2 -44 -15 -24 10 -52
40 -44 14 3 22 -1 25 -14 4 -15 5 -15 6 -1 0 9 -6 23 -14 32 -8 8 -15 19 -15
25 0 6 -8 27 -19 46 -14 27 -20 32 -25 19z m30 -91 c-2 -3 -9 -2 -15 2 -8 4
-7 13 1 28 l13 22 3 -23 c2 -13 1 -26 -2 -29z"/>
<path d="M3076 10310 c3 -14 11 -32 16 -40 6 -10 7 -7 2 10 -3 14 -11 32 -16
40 -6 10 -7 7 -2 -10z"/>
<path d="M2925 10230 c3 -5 8 -10 11 -10 2 0 4 5 4 10 0 6 -5 10 -11 10 -5 0
-7 -4 -4 -10z"/>
<path d="M2940 10201 c0 -5 5 -13 10 -16 6 -3 10 -2 10 4 0 5 -4 13 -10 16 -5
3 -10 2 -10 -4z"/>
<path d="M2961 10154 c0 -11 3 -14 6 -6 3 7 2 16 -1 19 -3 4 -6 -2 -5 -13z"/>
<path d="M2990 10103 c0 -6 8 -17 18 -24 16 -13 16 -13 2 6 -8 11 -16 22 -17
24 -2 2 -3 0 -3 -6z"/>
<path d="M3428 10063 c7 -3 16 -2 19 1 4 3 -2 6 -13 5 -11 0 -14 -3 -6 -6z"/>
<path d="M3340 10048 c-14 -4 -45 -13 -69 -21 -25 -7 -47 -20 -50 -28 -3 -11
-1 -11 10 -3 14 11 129 37 136 30 2 -2 -11 -11 -29 -20 -18 -9 -42 -22 -52
-29 -126 -79 -251 -141 -266 -132 -6 4 -27 -3 -48 -14 -73 -39 -104 -52 -98
-42 4 6 0 11 -9 11 -11 0 -15 -5 -12 -14 3 -8 -1 -13 -11 -12 -9 0 -21 -8 -26
-19 -6 -11 -18 -19 -27 -17 -16 3 -35 -13 -39 -33 -2 -5 -4 -14 -6 -20 -13
-42 -22 -89 -19 -96 3 -4 5 -27 6 -51 2 -73 5 -78 45 -66 35 9 94 -4 94 -21 0
-23 31 -44 69 -47 23 -2 48 -10 55 -17 33 -32 67 -120 72 -185 4 -37 14 -101
24 -142 10 -41 21 -105 25 -143 4 -37 12 -73 19 -80 6 -6 21 -31 33 -55 l21
-43 51 105 c47 97 71 133 71 107 0 -26 41 -8 66 28 25 39 61 57 93 46 28 -8
76 46 120 136 22 46 40 80 41 75 0 -5 8 -2 18 7 10 10 21 14 25 11 3 -3 11 4
17 16 6 12 14 19 17 16 12 -11 37 39 35 69 -2 29 -1 29 10 8 6 -13 17 -23 25
-23 7 0 13 -5 13 -12 0 -6 3 -9 6 -6 3 3 -2 23 -10 43 -18 43 -22 90 -6 65 6
-10 10 -11 10 -2 0 6 6 12 14 12 8 0 16 -6 19 -12 2 -7 2 8 0 33 -3 26 -1 49
5 53 11 7 21 -99 11 -116 -4 -6 -14 -8 -23 -5 -9 4 -16 2 -16 -2 0 -10 25 -21
47 -21 13 0 14 11 8 73 -9 94 -14 114 -27 96 -7 -10 -8 -8 -3 8 4 15 -3 31
-23 55 -16 18 -27 38 -25 45 3 7 -10 15 -31 18 -31 6 -36 12 -42 44 -4 20 -18
58 -31 84 l-24 49 23 -7 c13 -4 34 -14 47 -22 13 -8 20 -10 17 -4 -11 17 -64
42 -141 67 -64 20 -74 27 -116 80 -25 33 -55 63 -67 69 -12 5 -20 15 -18 22 5
13 -15 13 -54 1z m101 -111 c45 -21 54 -32 91 -109 16 -35 35 -66 41 -70 6 -4
9 -10 5 -13 -14 -14 -51 24 -80 85 -32 67 -56 95 -89 105 -11 4 -19 11 -19 16
0 6 3 8 8 6 4 -2 23 -11 43 -20z m281 -369 c36 -113 29 -177 -9 -99 -14 28
-29 51 -34 51 -12 0 -11 37 1 45 6 3 10 17 10 31 0 40 15 27 32 -28z m88 -108
c0 -5 -4 -10 -10 -10 -5 0 -10 5 -10 10 0 6 5 10 10 10 6 0 10 -4 10 -10z"/>
<path d="M6527 9992 c-9 -10 -24 -42 -32 -70 l-16 -52 -58 0 c-32 0 -76 -6
-97 -14 -56 -20 -154 -67 -124 -60 14 4 49 17 78 31 29 14 58 22 65 20 7 -3 4
-8 -8 -12 -131 -49 -231 -117 -301 -204 l-19 -24 28 18 28 18 -33 -55 c-41
-69 -91 -131 -82 -103 11 36 -71 -109 -90 -158 -22 -59 -19 -191 6 -247 102
-232 142 -467 119 -700 -13 -123 -26 -189 -48 -230 -7 -14 -13 -35 -13 -47 0
-12 -4 -33 -10 -47 -9 -24 -8 -25 23 -19 18 3 50 14 72 23 65 29 183 62 202
57 14 -4 14 -5 -4 -6 -12 0 -25 -5 -28 -11 -3 -6 2 -8 12 -5 10 3 8 0 -4 -6
-13 -7 -23 -18 -23 -26 0 -8 -6 -26 -14 -42 -11 -21 -29 -32 -78 -46 -35 -10
-87 -29 -117 -42 -29 -13 -55 -23 -58 -23 -2 0 -11 15 -19 33 l-15 32 6 -32
c4 -18 1 -42 -6 -54 -9 -17 -9 -24 0 -27 6 -2 11 -8 11 -14 0 -18 28 -38 46
-31 13 5 16 3 11 -10 -3 -9 -3 -16 1 -14 4 1 24 -12 44 -28 21 -16 66 -40 100
-52 70 -25 49 -31 -28 -8 -49 14 -162 84 -212 131 -23 21 -28 22 -31 8 -2 -14
-5 -14 -12 -3 -7 11 -9 11 -9 -2 0 -9 -59 -73 -132 -142 -131 -125 -131 -126
-119 -155 14 -32 171 -192 190 -192 6 0 11 -5 11 -11 0 -14 60 -7 140 16 98
28 331 64 495 76 176 13 471 1 654 -27 53 -8 143 -21 201 -29 188 -25 428 -87
631 -163 272 -103 325 -124 355 -141 l31 -19 38 67 c63 111 66 118 86 218 18
92 19 99 2 110 -9 7 -20 13 -24 13 -4 0 -11 9 -14 20 -3 11 -11 20 -16 20 -6
0 -7 -4 -4 -10 10 -16 -11 -12 -25 5 -6 8 -8 20 -4 27 4 7 4 10 0 7 -4 -4 -19
5 -35 20 -16 14 -54 42 -84 61 -64 40 -72 54 -24 45 21 -4 27 -3 17 3 -8 5
-64 17 -125 26 -141 22 -155 25 -155 34 0 4 21 32 47 62 29 34 36 45 18 30
-17 -14 -31 -28 -33 -31 -3 -7 -69 26 -157 76 -22 12 -78 35 -123 49 -104 32
-121 41 -121 64 -1 41 -9 63 -27 77 -18 14 -17 15 11 9 17 -4 57 -17 90 -29
33 -13 85 -30 115 -40 30 -9 99 -37 153 -63 l97 -47 -1 35 c-2 30 -3 31 -6 8
l-4 -28 -40 20 c-21 11 -39 25 -39 31 0 6 -4 8 -9 4 -5 -3 -12 -1 -15 4 -3 5
3 11 14 14 11 3 20 9 18 14 -1 4 3 60 10 123 23 219 29 315 27 415 -1 55 0 84
2 65 8 -65 25 -59 22 7 -2 39 2 68 10 77 11 13 10 17 -3 22 -9 3 -16 12 -16
19 0 18 -42 95 -52 95 -4 0 -8 7 -8 15 0 11 11 5 33 -17 18 -18 31 -36 29 -40
-5 -13 16 -9 24 4 4 6 -1 17 -11 24 -10 8 -16 16 -14 19 3 3 28 -15 55 -40 51
-46 64 -53 64 -33 0 6 3 8 6 5 4 -4 1 -13 -6 -22 -11 -13 -10 -14 5 -9 13 5
16 4 11 -4 -4 -7 -1 -12 9 -12 9 0 14 -4 11 -9 -3 -5 1 -14 9 -21 10 -9 15 -9
15 -1 0 6 -5 11 -11 11 -5 0 -8 4 -5 9 3 5 -1 14 -9 21 -8 7 -15 17 -15 22 0
6 -9 22 -20 38 -11 15 -17 30 -15 34 3 3 2 4 -1 1 -8 -5 -64 70 -64 85 0 5 -5
10 -11 10 -5 0 -8 4 -4 9 3 6 0 13 -7 18 -7 4 -27 28 -43 53 -16 25 -32 47
-35 50 -25 25 -71 104 -66 115 3 9 0 12 -9 9 -9 -4 -16 4 -21 23 -12 50 -216
305 -231 289 -4 -3 0 -26 8 -51 11 -36 17 -43 29 -35 10 7 12 12 4 18 -6 4
-17 18 -23 32 -10 19 -6 17 18 -10 l30 -35 -22 -12 c-18 -10 -24 -9 -34 4 -7
9 -13 23 -13 30 0 29 -42 93 -99 152 -67 68 -61 77 20 28 107 -65 211 -163
203 -192 -4 -14 -3 -16 4 -7 7 11 17 5 42 -25 20 -24 28 -29 19 -13 -6 13 -17
30 -23 37 -27 30 -36 43 -36 49 0 9 -80 101 -178 204 -106 111 -189 158 -299
167 -40 3 -70 10 -67 15 7 11 102 2 154 -14 118 -37 332 -224 507 -443 143
-180 176 -226 227 -310 31 -52 36 -57 36 -32 0 15 -4 27 -10 27 -5 0 -7 6 -4
13 3 8 0 25 -5 40 -14 36 -1 38 89 12 115 -34 130 -36 130 -25 0 5 -9 10 -20
10 -28 0 -148 39 -156 51 -7 12 -2 11 40 -6 58 -25 41 -7 -28 28 -34 17 -81
42 -103 54 -45 25 -183 155 -183 173 0 6 -5 8 -12 4 -7 -4 -8 -3 -4 4 11 18
-114 198 -190 276 -101 102 -211 177 -283 194 -14 3 -89 5 -167 5 -118 -1
-147 -4 -185 -21 -56 -25 -101 -38 -79 -23 13 9 12 11 -5 12 -12 1 -4 6 20 14
39 13 39 14 10 15 -100 3 137 48 275 52 74 2 74 2 15 6 -79 5 -231 -13 -328
-39 l-77 -21 -53 41 c-122 98 -169 118 -200 83z m333 -126 c0 -2 -9 -6 -20 -9
-11 -3 -18 -1 -14 4 5 9 34 13 34 5z m-437 -13 c-7 -2 -21 -2 -30 0 -10 3 -4
5 12 5 17 0 24 -2 18 -5z m59 -191 c2 -62 0 -104 -4 -95 -3 10 -7 37 -7 61
l-1 43 -26 -20 c-15 -11 -31 -18 -36 -15 -6 4 -14 0 -19 -7 -7 -10 -9 -3 -7
21 2 23 8 34 16 32 10 -2 12 4 7 20 -4 14 -3 18 2 11 5 -7 20 -14 33 -15 24
-3 25 0 29 62 5 79 9 51 13 -98z m-129 8 c-9 -30 -18 -49 -20 -43 -5 13 27
107 33 100 2 -1 -4 -27 -13 -57z m659 -18 c-7 -36 -22 -6 -21 43 l0 40 13 -30
c7 -16 10 -40 8 -53z m331 -35 c-5 -9 -33 18 -33 32 0 6 8 3 18 -6 11 -10 17
-21 15 -26z m-19 -40 c5 -22 5 -22 -10 -2 -9 11 -20 29 -26 40 -11 19 -10 20
10 2 11 -10 22 -28 26 -40z m-1235 -7 c-12 -23 -28 -44 -35 -47 -8 -3 -14 -13
-15 -22 0 -9 -3 -11 -5 -4 -6 14 21 70 49 100 29 32 31 22 6 -27z m589 -180
c-1 -73 -1 -74 -8 -25 -5 28 -8 82 -8 120 0 66 1 68 9 25 4 -25 7 -79 7 -120z
m996 124 c3 -8 2 -12 -4 -9 -6 3 -10 10 -10 16 0 14 7 11 14 -7z m-1094 -227
c12 -26 19 -53 17 -60 -3 -7 -8 -4 -12 8 -3 11 -22 56 -40 100 -18 44 -36 98
-39 120 -4 29 2 18 23 -40 16 -44 39 -102 51 -128z m1170 148 c19 -23 8 -25
-14 -4 -11 11 -15 19 -9 19 6 0 16 -7 23 -15z m-1053 -17 c-3 -8 -6 -5 -6 6
-1 11 2 17 5 13 3 -3 4 -12 1 -19z m270 -10 c-3 -7 -5 -2 -5 12 0 14 2 19 5
13 2 -7 2 -19 0 -25z m-660 -60 c-2 -13 -4 -3 -4 22 0 25 2 35 4 23 2 -13 2
-33 0 -45z m400 -110 c-2 -24 -4 -5 -4 42 0 47 2 66 4 43 2 -24 2 -62 0 -85z
m664 89 c-8 -8 -11 -7 -11 4 0 9 3 19 7 23 4 4 9 2 11 -4 3 -7 -1 -17 -7 -23z
m297 -120 c31 -94 45 -212 34 -277 l-10 -55 -1 43 c-2 72 -20 46 -24 -35 -3
-50 -3 -45 -1 12 1 50 6 102 10 118 4 17 2 27 -5 27 -6 0 -12 -8 -12 -17 -1
-10 -5 13 -10 50 -5 38 -16 75 -24 83 -14 14 -19 31 -43 131 -9 40 -1 81 11
52 3 -9 6 -7 6 6 1 27 44 -57 69 -138z m-238 105 c0 -7 -4 -10 -10 -7 -5 3
-10 16 -10 28 0 18 2 19 10 7 5 -8 10 -21 10 -28z m-68 -27 c-2 -14 -6 -25 -7
-25 -1 0 -5 11 -7 25 -3 16 -1 25 7 25 8 0 10 -9 7 -25z m65 -67 c-2 -13 -4
-3 -4 22 0 25 2 35 4 23 2 -13 2 -33 0 -45z m555 -65 c20 -21 27 -33 18 -33
-11 0 -12 -3 -3 -8 12 -7 29 -62 20 -62 -3 0 -24 35 -48 78 -23 42 -46 79 -50
80 -5 2 -9 9 -9 15 1 7 10 1 21 -13 10 -14 34 -40 51 -57z m-545 -80 c-3 -10
-5 -4 -5 12 0 17 2 24 5 18 2 -7 2 -21 0 -30z m-740 5 c-3 -8 -6 -5 -6 6 -1
11 2 17 5 13 3 -3 4 -12 1 -19z m730 -150 c-3 -8 -6 -5 -6 6 -1 11 2 17 5 13
3 -3 4 -12 1 -19z m-10 -80 c-3 -7 -5 -2 -5 12 0 14 2 19 5 13 2 -7 2 -19 0
-25z m363 2 c0 -5 -4 -10 -10 -10 -5 0 -10 5 -10 10 0 6 5 10 10 10 6 0 10 -4
10 -10z m97 -577 c-2 -16 -4 -3 -4 27 0 30 2 43 4 28 2 -16 2 -40 0 -55z
m-1272 -93 c-11 -5 -38 -8 -60 -8 l-40 1 35 7 c19 4 46 8 60 8 23 1 23 0 5 -8z
m142 4 c-3 -3 -12 -4 -19 -1 -8 3 -5 6 6 6 11 1 17 -2 13 -5z m-827 -344 c0
-5 -4 -10 -10 -10 -5 0 -10 5 -10 10 0 6 5 10 10 10 6 0 10 -4 10 -10z"/>
<path d="M9906 9951 c-3 -5 0 -11 8 -14 8 -3 17 1 20 9 6 15 -19 20 -28 5z"/>
<path d="M3045 9905 c-27 -18 -55 -38 -62 -44 -6 -6 -23 -13 -37 -17 -14 -3
-26 -10 -26 -15 0 -12 0 -12 47 11 23 11 50 17 60 14 14 -5 15 -4 4 4 -13 9
-11 14 10 31 13 11 32 23 42 26 9 4 17 11 17 16 0 12 2 13 -55 -26z"/>
<path d="M7258 9913 c6 -2 18 -2 25 0 6 3 1 5 -13 5 -14 0 -19 -2 -12 -5z"/>
<path d="M7427 9849 c7 -7 15 -10 18 -7 3 3 -2 9 -12 12 -14 6 -15 5 -6 -5z"/>
<path d="M2890 9815 c-8 -9 -8 -15 -2 -15 12 0 26 19 19 26 -2 2 -10 -2 -17
-11z"/>
<path d="M9730 9800 c-8 -5 -12 -12 -9 -15 4 -3 12 1 19 10 14 17 11 19 -10 5z"/>
<path d="M10530 9790 c0 -5 5 -10 11 -10 5 0 7 5 4 10 -3 6 -8 10 -11 10 -2 0
-4 -4 -4 -10z"/>
<path d="M9692 9710 c0 -19 2 -27 5 -17 2 9 2 25 0 35 -3 9 -5 1 -5 -18z"/>
<path d="M7630 9676 c0 -2 8 -10 18 -17 15 -13 16 -12 3 4 -13 16 -21 21 -21
13z"/>
<path d="M9728 9663 c7 -3 16 -2 19 1 4 3 -2 6 -13 5 -11 0 -14 -3 -6 -6z"/>
<path d="M3810 9636 c0 -2 9 -6 20 -9 11 -3 18 -1 14 4 -5 9 -34 13 -34 5z"/>
<path d="M10665 9611 c-3 -5 -1 -12 5 -16 5 -3 10 1 10 9 0 18 -6 21 -15 7z"/>
<path d="M6001 9577 c-13 -21 -12 -21 5 -5 10 10 16 20 13 22 -3 3 -11 -5 -18
-17z"/>
<path d="M9608 9433 c7 -3 16 -2 19 1 4 3 -2 6 -13 5 -11 0 -14 -3 -6 -6z"/>
<path d="M8427 9399 c7 -7 15 -10 18 -7 3 3 -2 9 -12 12 -14 6 -15 5 -6 -5z"/>
<path d="M2816 9344 c-3 -9 -13 -14 -21 -11 -20 8 -26 -19 -19 -87 6 -63 19
-106 32 -106 28 0 72 92 72 150 0 53 -49 94 -64 54z"/>
<path d="M5428 9343 c7 -3 16 -2 19 1 4 3 -2 6 -13 5 -11 0 -14 -3 -6 -6z"/>
<path d="M8420 9312 c0 -11 187 -225 201 -230 5 -2 9 2 9 9 0 7 -3 10 -6 6 -3
-3 -44 39 -91 95 -46 55 -83 101 -81 104 2 2 21 -1 42 -7 21 -6 40 -8 42 -6 3
2 -15 9 -39 16 -25 6 -52 13 -61 17 -9 3 -16 2 -16 -4z"/>
<path d="M8558 9273 c7 -3 16 -2 19 1 4 3 -2 6 -13 5 -11 0 -14 -3 -6 -6z"/>
<path d="M8620 9245 c14 -8 32 -14 40 -14 8 0 0 6 -19 14 -42 19 -54 19 -21 0z"/>
<path d="M8765 9250 c-4 -6 3 -10 14 -10 25 0 27 6 6 13 -8 4 -17 2 -20 -3z"/>
<path d="M8611 9164 c0 -11 3 -14 6 -6 3 7 2 16 -1 19 -3 4 -6 -2 -5 -13z"/>
<path d="M8745 9175 c25 -9 107 -12 94 -4 -8 5 -34 8 -59 8 -25 0 -40 -2 -35
-4z"/>
<path d="M8697 9163 c-4 -3 -6 -22 -6 -42 2 -34 2 -34 6 -6 3 17 9 36 15 43
11 12 -3 18 -15 5z"/>
<path d="M8621 9124 c0 -11 3 -14 6 -6 3 7 2 16 -1 19 -3 4 -6 -2 -5 -13z"/>
<path d="M8736 9027 c3 -10 9 -15 12 -12 3 3 0 11 -7 18 -10 9 -11 8 -5 -6z"/>
<path d="M9070 9022 c0 -6 9 -12 20 -15 11 -3 20 -3 20 -1 0 2 -9 8 -20 14
-11 6 -20 7 -20 2z"/>
<path d="M5450 8995 c0 -8 2 -15 4 -15 2 0 6 7 10 15 3 8 1 15 -4 15 -6 0 -10
-7 -10 -15z"/>
<path d="M9558 9003 c7 -3 16 -2 19 1 4 3 -2 6 -13 5 -11 0 -14 -3 -6 -6z"/>
<path d="M8764 8985 c28 -113 46 -145 86 -145 11 0 45 -11 76 -25 32 -14 59
-23 62 -20 6 6 -102 54 -139 62 -16 3 -26 9 -23 14 3 5 0 8 -7 7 -7 -2 -17 17
-24 43 -12 47 -42 107 -31 64z"/>
<path d="M9080 8990 c0 -5 5 -10 11 -10 5 0 7 5 4 10 -3 6 -8 10 -11 10 -2 0
-4 -4 -4 -10z"/>
<path d="M9608 8993 c6 -2 18 -2 25 0 6 3 1 5 -13 5 -14 0 -19 -2 -12 -5z"/>
<path d="M9120 8970 c8 -5 20 -10 25 -10 6 0 3 5 -5 10 -8 5 -19 10 -25 10 -5
0 -3 -5 5 -10z"/>
<path d="M5584 8883 c-13 -42 -18 -93 -18 -183 -1 -142 -15 -106 -18 45 -1 50
-3 82 -5 73 -5 -20 -18 -23 -28 -7 -10 15 -34 -20 -35 -49 0 -13 -4 -21 -9
-18 -5 3 -11 -3 -14 -13 -3 -14 -1 -18 9 -14 9 3 14 -1 14 -12 0 -9 -4 -14 -9
-11 -5 3 -11 -8 -13 -24 -3 -17 0 -30 4 -30 5 0 2 -7 -6 -16 -9 -8 -14 -20
-11 -25 4 -5 -1 -9 -10 -9 -8 0 -20 -12 -26 -27 -6 -16 -17 -41 -24 -57 -8
-16 -12 -32 -9 -37 3 -5 0 -8 -7 -7 -7 2 -15 -6 -17 -16 -2 -11 -10 -25 -17
-33 -7 -7 -11 -23 -8 -35 4 -19 3 -20 -7 -8 -10 13 -11 13 -6 -2 7 -24 -3 -50
-17 -41 -6 3 -7 1 -3 -5 11 -18 14 -16 47 43 24 42 34 53 44 45 10 -8 14 -4
19 16 11 44 18 19 7 -27 -21 -93 -21 -114 2 -128 18 -12 22 -10 38 10 l19 24
0 -25 c0 -15 -6 -32 -12 -39 -10 -11 -10 -13 0 -7 8 5 12 0 12 -12 0 -11 6
-22 14 -25 8 -3 17 -21 21 -39 3 -18 13 -53 20 -78 8 -25 17 -73 20 -108 6
-54 5 -61 -9 -56 -17 6 -30 -28 -24 -64 3 -20 6 -19 52 15 37 27 45 37 35 44
-10 6 -10 9 -2 9 19 0 93 82 93 103 0 10 -12 44 -26 75 -47 101 -89 272 -98
394 -5 73 -5 73 4 13 31 -214 70 -345 120 -403 18 -22 40 -23 40 -1 0 5 10 23
22 39 19 26 20 34 10 68 -17 56 -13 63 8 17 15 -32 19 -35 19 -17 1 13 10 32
21 44 23 25 35 89 34 178 -1 36 3 68 9 72 29 18 13 234 -21 286 -25 38 -32 25
-32 -55 0 -129 -11 -142 -31 -38 -10 50 -18 107 -19 128 0 26 -4 37 -15 37
-11 0 -14 7 -9 25 4 14 2 25 -4 25 -15 0 -25 -136 -20 -249 2 -53 3 -78 0 -56
-3 33 -6 37 -13 20 -7 -16 -8 -13 -4 10 3 17 -1 53 -9 80 l-13 50 -9 -105 -9
-105 -6 145 c-7 159 -17 240 -29 240 -5 0 -17 -26 -26 -57z m-65 -120 c0 -21
-4 -47 -9 -58 -6 -14 -9 -4 -9 38 -1 32 3 57 9 57 6 0 10 -17 9 -37z m51 -867
c0 -3 -4 -8 -10 -11 -5 -3 -10 -1 -10 4 0 6 5 11 10 11 6 0 10 -2 10 -4z"/>
<path d="M8720 8925 c0 -5 5 -17 10 -25 5 -8 10 -10 10 -5 0 6 -5 17 -10 25
-5 8 -10 11 -10 5z"/>
<path d="M9526 8904 c-4 -9 -4 -19 -1 -22 3 -3 5 0 5 6 0 7 8 12 18 12 12 0
13 -3 5 -8 -7 -4 -10 -19 -8 -33 4 -19 0 -25 -15 -26 -17 -2 -18 1 -10 18 13
24 2 25 -16 2 -9 -14 -27 -18 -68 -18 -48 0 -54 -2 -39 -13 10 -7 34 -15 55
-19 21 -3 38 -9 38 -14 0 -15 27 -10 40 6 11 13 10 14 -6 9 -16 -6 -17 -4 -7
6 7 8 21 15 30 16 10 2 19 7 21 12 2 6 13 8 25 5 18 -4 19 -3 7 6 -12 9 -12
13 -2 19 8 6 0 15 -27 30 -35 20 -39 20 -45 6z m-51 -84 c-3 -5 -14 -10 -23
-9 -14 0 -13 2 3 9 27 11 27 11 20 0z m35 6 c0 -3 -4 -8 -10 -11 -5 -3 -10 -1
-10 4 0 6 5 11 10 11 6 0 10 -2 10 -4z"/>
<path d="M5511 8898 c0 -10 -5 -18 -11 -18 -5 0 -10 -8 -10 -17 0 -16 1 -16
16 -1 9 8 14 24 11 34 -4 17 -5 17 -6 2z"/>
<path d="M5539 8889 c-8 -15 -8 -19 0 -15 7 5 11 -2 12 -16 1 -23 1 -23 9 2 4
14 8 31 9 38 2 19 -17 14 -30 -9z"/>
<path d="M9190 8896 c28 -17 50 -21 35 -7 -6 5 -21 12 -35 15 l-25 7 25 -15z"/>
<path d="M9090 8890 c0 -5 5 -10 10 -10 6 0 10 5 10 10 0 6 -4 10 -10 10 -5 0
-10 -4 -10 -10z"/>
<path d="M9308 8878 c11 -14 10 -17 -9 -20 -12 -2 -24 -9 -27 -15 -2 -9 6 -11
30 -7 48 9 53 19 21 39 -22 15 -25 15 -15 3z"/>
<path d="M8676 8865 c-3 -8 -1 -15 3 -15 5 0 11 7 15 15 3 8 1 15 -3 15 -5 0
-11 -7 -15 -15z"/>
<path d="M8740 8872 c0 -19 37 -70 61 -83 11 -6 41 -12 67 -13 l47 -4 -50 15
c-76 23 -93 33 -109 67 -9 17 -16 25 -16 18z"/>
<path d="M9620 8860 c0 -5 10 -12 21 -15 17 -6 19 -9 8 -16 -8 -5 -16 -3 -21
4 -5 8 -8 9 -8 1 0 -15 29 -39 37 -30 3 3 0 6 -8 6 -11 0 -11 2 1 10 21 14 23
13 65 -20 38 -30 72 -42 45 -16 -23 23 -140 86 -140 76z"/>
<path d="M5466 8824 c-9 -24 -2 -26 12 -4 7 11 8 20 3 20 -5 0 -12 -7 -15 -16z"/>
<path d="M8586 8735 c-36 -57 -66 -109 -66 -113 0 -5 -14 -42 -30 -83 -28 -68
-49 -145 -65 -241 -11 -71 3 -38 26 60 l23 97 12 -50 c11 -47 12 -48 13 -15 1
26 4 31 11 20 5 -8 7 -23 4 -33 -7 -22 22 -57 47 -57 26 0 33 -38 16 -87 -8
-23 -10 -46 -6 -50 5 -5 11 -31 15 -58 9 -80 13 -95 29 -95 10 0 15 -10 15
-28 0 -16 9 -37 20 -47 23 -21 25 -20 34 18 6 24 4 27 -20 27 -17 0 -24 4 -20
13 2 6 10 31 17 55 12 45 28 56 30 20 3 -52 7 -68 19 -83 8 -9 10 -27 6 -48
-3 -18 -4 -36 -1 -39 11 -10 45 4 45 18 0 8 5 14 10 14 6 0 10 -18 10 -39 0
-22 3 -46 6 -55 4 -11 1 -16 -11 -16 -12 0 -15 -5 -10 -17 15 -38 24 -76 20
-84 -3 -4 -1 -10 5 -14 5 -3 10 -15 10 -26 0 -10 7 -19 15 -19 8 0 15 5 15 11
0 5 4 8 10 4 5 -3 6 -13 3 -23 -6 -15 -5 -15 10 -3 15 12 17 11 17 -7 0 -39
27 -36 48 5 10 19 9 20 -9 16 -18 -5 -19 -2 -13 23 9 36 14 43 14 18 0 -29 18
1 31 54 11 42 23 53 33 30 3 -7 4 -4 3 7 -2 11 -10 19 -19 19 -9 -1 -14 4 -12
10 3 7 -9 25 -26 41 -16 16 -30 34 -30 40 0 6 -7 20 -15 31 -15 18 -15 18 -8
0 4 -13 3 -17 -4 -13 -6 4 -14 1 -17 -5 -5 -12 1 19 11 52 4 12 3 12 -5 2 -7
-11 -10 -9 -15 7 -3 12 -2 21 2 21 4 0 -3 30 -16 68 -26 75 -25 157 3 253 14
48 13 85 -1 40 -3 -12 -11 -21 -17 -21 -11 0 3 21 34 53 10 10 18 25 18 35 -1
13 -4 11 -15 -8 -8 -14 -14 -19 -14 -10 0 20 28 69 29 50 0 -19 24 25 40 77 7
21 26 66 41 100 24 54 26 64 14 80 -9 11 -14 13 -15 5 0 -7 -4 -11 -10 -7 -5
3 -7 13 -4 23 4 13 3 14 -4 4 -6 -9 -22 -12 -48 -8 -30 4 -33 4 -14 -3 23 -8
24 -9 3 -10 -12 -1 -25 -5 -28 -11 -3 -5 -13 -10 -21 -10 -8 0 -14 5 -14 10 0
6 7 10 15 10 8 0 15 5 15 10 0 6 -12 10 -26 10 -19 0 -25 -4 -20 -15 4 -10 -1
-15 -17 -16 -12 0 -16 -3 -9 -6 20 -8 14 -21 -15 -35 -15 -7 -34 -26 -41 -41
-12 -25 -32 -37 -32 -19 0 16 -57 72 -73 72 -22 0 -21 12 3 38 11 12 20 26 20
33 0 6 6 9 14 6 10 -4 12 0 8 15 -4 16 -1 20 9 16 10 -4 15 1 15 13 0 11 -3
19 -7 19 -4 0 -37 -47 -73 -105z m338 -2 c4 -5 12 -8 17 -8 5 0 9 -4 10 -8 1
-11 -25 -67 -31 -67 -3 0 -7 -10 -7 -22 -1 -13 -8 -25 -14 -27 -16 -5 -59 -51
-59 -63 0 -5 7 -8 16 -6 10 2 19 -3 22 -11 3 -8 -1 -12 -9 -9 -8 3 -18 -1 -24
-9 -14 -19 -12 54 4 91 12 30 7 66 -10 66 -5 0 -9 9 -9 20 0 11 5 20 11 20 6
0 9 6 6 14 -4 10 2 16 16 19 38 7 53 7 61 0z m-352 -65 c-8 -8 -9 -4 -5 13 4
13 8 18 11 10 2 -7 -1 -18 -6 -23z m228 -341 c0 -5 -4 -5 -10 -2 -5 3 -10 14
-10 23 0 15 2 15 10 2 5 -8 10 -19 10 -23z m-33 -59 c-3 -8 -6 -5 -6 6 -1 11
2 17 5 13 3 -3 4 -12 1 -19z m-90 -10 c-3 -8 -6 -5 -6 6 -1 11 2 17 5 13 3 -3
4 -12 1 -19z m110 -20 c-3 -8 -6 -5 -6 6 -1 11 2 17 5 13 3 -3 4 -12 1 -19z
m-20 -30 c-3 -8 -6 -5 -6 6 -1 11 2 17 5 13 3 -3 4 -12 1 -19z m-87 -28 c0
-11 -7 -20 -15 -20 -17 0 -18 2 -9 24 9 23 24 20 24 -4z m87 -43 c1 -29 1 -30
-8 -9 -5 13 -7 28 -3 33 8 14 9 12 11 -24z m37 -37 c4 -24 3 -29 -3 -15 -4 11
-11 36 -15 55 -4 24 -3 29 3 15 4 -11 11 -36 15 -55z m124 -233 c10 -11 9 -17
-5 -28 -16 -12 -17 -12 -6 2 11 13 9 18 -12 29 -14 7 -25 17 -25 22 0 11 33
-6 48 -25z m-43 -15 c-6 -6 -35 18 -35 29 0 5 9 1 20 -8 11 -9 17 -19 15 -21z
m55 -42 c0 -5 -2 -10 -4 -10 -3 0 -8 5 -11 10 -3 6 -1 10 4 10 6 0 11 -4 11
-10z m-46 -26 c9 -23 8 -24 -19 -24 -23 0 -24 2 -15 20 13 24 26 26 34 4z"/>
<path d="M8903 8719 c9 -5 17 -15 17 -20 0 -6 -4 -8 -8 -5 -5 3 -9 -1 -9 -9 0
-20 7 -19 22 2 10 13 10 19 -1 30 -7 7 -19 13 -26 13 -8 0 -7 -4 5 -11z"/>
<path d="M8730 8821 c0 -5 7 -12 16 -15 14 -5 15 -4 4 9 -14 17 -20 19 -20 6z"/>
<path d="M9587 8819 c7 -7 15 -10 18 -7 3 3 -2 9 -12 12 -14 6 -15 5 -6 -5z"/>
<path d="M2950 8792 c0 -5 -14 -23 -31 -40 -33 -34 -74 -42 -98 -19 -11 10
-14 10 -18 0 -7 -20 -17 -15 -36 17 -21 34 -29 32 -87 -20 -19 -17 -52 -46
-72 -63 -21 -18 -38 -35 -38 -39 0 -4 24 -39 54 -77 29 -38 71 -105 92 -148
22 -43 40 -80 42 -83 2 -2 17 11 33 30 17 19 47 53 68 75 33 36 36 45 33 85
-3 45 -3 45 57 88 56 41 59 45 56 80 -8 90 -17 122 -36 122 -11 0 -19 -4 -19
-8z"/>
<path d="M9575 8790 c-3 -5 -1 -10 4 -10 6 0 11 5 11 10 0 6 -2 10 -4 10 -3 0
-8 -4 -11 -10z"/>
<path d="M9000 8783 c0 -46 102 -183 135 -182 6 0 4 3 -2 6 -20 7 -15 25 5 19
9 -3 31 -1 47 4 l30 10 -36 -3 c-27 -2 -35 1 -32 10 7 19 -8 16 -23 -4 -12
-17 -15 -15 -45 17 -18 19 -43 57 -55 85 -13 27 -24 45 -24 38z"/>
<path d="M9034 8768 c9 -12 16 -30 16 -40 0 -9 3 -19 8 -21 4 -3 7 8 7 23 0
15 -3 26 -6 24 -4 -2 -9 5 -12 16 -3 11 -10 20 -17 20 -7 0 -6 -8 4 -22z"/>
<path d="M9622 8778 c-7 -7 -12 -15 -12 -19 0 -10 50 -17 56 -8 3 5 -5 9 -17
9 -18 0 -19 2 -9 15 15 18 -1 20 -18 3z"/>
<path d="M7947 8746 c-4 -9 -2 -16 4 -16 6 0 8 -4 5 -9 -3 -4 1 -17 10 -27 14
-18 15 -18 9 4 -4 13 -2 22 4 22 6 0 11 -4 11 -10 0 -5 11 -20 25 -34 14 -14
25 -35 26 -48 1 -20 2 -19 10 7 6 22 5 31 -6 37 -7 5 -31 27 -53 49 -31 34
-40 38 -45 25z"/>
<path d="M9533 8744 c-4 -12 -14 -14 -35 -10 -21 4 -28 2 -25 -7 2 -7 22 -12
50 -12 39 0 46 3 50 23 3 16 0 22 -15 22 -10 0 -21 -7 -25 -16z"/>
<path d="M8621 8736 c-9 -11 -6 -13 15 -13 14 0 22 2 18 6 -5 3 -12 10 -15 14
-3 4 -11 1 -18 -7z"/>
<path d="M9140 8730 c0 -5 -8 -10 -17 -10 -16 -1 -16 -2 -2 -13 9 -7 18 -19
21 -27 3 -8 5 2 5 23 -1 20 -2 37 -4 37 -2 0 -3 -4 -3 -10z"/>
<path d="M9608 8729 c-9 -6 -2 -9 18 -9 17 0 49 -11 70 -25 l39 -25 -33 29
c-37 31 -73 43 -94 30z"/>
<path d="M9820 8736 c0 -2 8 -10 18 -17 15 -13 16 -12 3 4 -13 16 -21 21 -21
13z"/>
<path d="M10820 8710 c0 -5 5 -10 11 -10 5 0 7 5 4 10 -3 6 -8 10 -11 10 -2 0
-4 -4 -4 -10z"/>
<path d="M3123 8694 c-7 -3 -13 -10 -13 -15 0 -13 69 -7 70 6 1 11 -38 17 -57
9z"/>
<path d="M9415 8689 c-4 -6 -4 -13 -1 -16 8 -8 36 5 36 17 0 13 -27 13 -35 -1z"/>
<path d="M9497 8682 c4 -18 33 -27 33 -10 0 4 -6 8 -12 8 -9 0 -8 4 2 10 12 8
11 10 -7 10 -16 0 -20 -5 -16 -18z"/>
<path d="M9585 8690 c3 -6 -4 -14 -16 -18 -12 -5 -18 -12 -12 -15 13 -8 55 22
48 34 -4 5 -11 9 -16 9 -6 0 -7 -5 -4 -10z"/>
<path d="M4550 8670 c-8 -5 -12 -12 -9 -15 4 -3 12 1 19 10 14 17 11 19 -10 5z"/>
<path d="M9612 8665 c-8 -10 -9 -15 -2 -15 6 0 8 -4 5 -10 -3 -5 -2 -10 3 -10
5 0 10 11 10 25 0 14 -1 25 -2 25 0 -1 -7 -7 -14 -15z"/>
<path d="M9463 8660 c-13 -5 -23 -14 -23 -19 0 -6 -13 -8 -29 -6 -23 3 -28 0
-24 -11 4 -12 8 -12 21 -2 13 11 15 10 9 -4 -9 -25 -5 -23 39 17 41 37 41 39
7 25z"/>
<path d="M7954 8625 c24 -184 27 -234 24 -331 -2 -82 0 -110 9 -107 6 2 13 -1
16 -9 2 -7 3 -4 1 7 -2 11 -6 81 -9 155 -7 158 -22 290 -36 311 -7 10 -9 2 -5
-26z"/>
<path d="M9521 8624 c1 -17 3 -22 6 -11 2 9 8 15 13 12 5 -3 12 0 16 7 4 7 4
10 -1 6 -4 -4 -14 -3 -22 3 -10 9 -13 6 -12 -17z"/>
<path d="M9290 8630 c0 -5 5 -10 10 -10 6 0 10 5 10 10 0 6 -4 10 -10 10 -5 0
-10 -4 -10 -10z"/>
<path d="M3000 8610 c-19 -11 -31 -19 -27 -20 5 0 18 5 30 12 12 6 36 15 52
19 27 6 28 7 5 8 -14 0 -41 -8 -60 -19z"/>
<path d="M9200 8610 c-12 -7 -12 -12 4 -29 10 -11 15 -24 12 -30 -4 -6 15 -21
41 -34 58 -29 103 -41 103 -27 0 5 -11 12 -25 16 -14 3 -25 12 -25 20 0 7 -11
21 -25 30 -14 9 -23 20 -20 24 3 5 -1 11 -7 13 -10 4 -10 6 0 6 6 1 12 6 12
11 0 13 -50 13 -70 0z"/>
<path d="M9310 8588 c0 -23 12 -58 19 -58 4 0 5 16 3 35 -4 32 -22 51 -22 23z"/>
<path d="M9373 8580 c3 -10 0 -21 -7 -24 -6 -2 -1 -8 12 -12 14 -4 21 -12 18
-20 -3 -8 -1 -14 4 -14 6 0 10 -7 10 -16 0 -8 -4 -13 -10 -9 -5 3 -8 -9 -6
-30 1 -20 9 -41 16 -45 8 -5 11 -13 6 -17 -4 -4 -14 1 -22 11 -12 17 -14 18
-14 3 0 -19 -29 -57 -43 -57 -5 0 -4 7 3 15 14 17 8 19 -18 6 -9 -6 -38 -20
-64 -32 -47 -22 -64 -42 -52 -61 13 -20 33 -112 26 -118 -7 -5 -22 -30 -51
-84 -9 -17 -24 -39 -33 -50 -10 -11 -18 -25 -18 -32 0 -17 -41 -108 -53 -115
-5 -4 -7 -13 -5 -20 3 -8 -2 -20 -9 -27 -8 -8 -11 -24 -8 -36 2 -11 2 -15 -1
-8 -4 9 -13 -1 -25 -28 -21 -48 -23 -53 -10 -46 5 3 11 -2 13 -12 4 -12 -1
-18 -13 -19 -11 -1 -19 4 -19 10 -1 7 -10 -14 -21 -47 -15 -44 -18 -65 -10
-85 8 -22 10 -23 11 -6 2 17 3 16 9 -5 4 -15 2 -30 -5 -37 -17 -18 -27 -16
-20 2 7 19 -8 62 -17 48 -4 -6 -9 -39 -12 -73 -3 -36 -11 -67 -20 -76 -8 -9
-15 -24 -15 -34 0 -10 -4 -20 -9 -22 -4 -1 -11 -14 -15 -28 -3 -14 -3 -19 0
-12 3 6 10 10 14 7 5 -3 15 14 21 37 7 24 23 53 36 65 l23 22 0 -51 c0 -44 2
-49 15 -38 13 11 14 10 9 -5 -10 -26 16 -15 35 16 15 22 15 23 -1 11 -14 -11
-18 -10 -26 4 -6 11 -3 28 12 55 23 43 36 50 36 19 0 -11 5 -20 11 -20 6 0 3
-7 -5 -16 -26 -26 -18 -29 9 -4 26 25 33 36 14 24 -7 -4 -10 -2 -8 5 3 7 7 11
10 9 11 -6 38 24 33 37 -6 14 29 39 39 29 3 -3 4 5 1 18 -2 12 -1 17 2 10 4
-9 11 -7 25 9 22 26 24 33 7 24 -7 -4 2 5 20 20 34 28 42 55 17 55 -8 0 -15 5
-15 10 0 13 27 13 35 0 8 -13 25 -3 25 13 0 8 -3 8 -9 -2 -5 -8 -11 -9 -15 -3
-3 5 1 15 9 22 9 8 13 21 10 34 -4 12 -3 16 2 10 24 -31 42 -22 82 42 l40 64
-27 -5 -27 -6 25 15 c14 8 28 12 31 10 4 -2 17 13 29 34 20 33 24 45 29 90 0
6 10 12 20 12 25 0 34 25 15 41 -10 8 -12 15 -4 23 5 5 10 29 10 53 0 24 5 43
11 43 6 0 8 -9 4 -21 -4 -11 -4 -36 -1 -54 6 -29 10 -33 34 -31 25 3 27 7 30
55 2 30 -1 51 -7 51 -6 0 -8 -12 -5 -29 4 -20 1 -30 -9 -34 -13 -5 -16 4 -17
46 -2 103 -1 99 -16 86 -8 -7 -18 -9 -21 -5 -4 4 -1 12 7 17 11 8 10 9 -7 4
-28 -8 -30 6 -3 25 11 8 20 20 20 28 0 10 12 12 48 8 l47 -5 -45 10 c-25 6
-49 15 -54 20 -6 5 -15 9 -20 9 -6 0 -2 -7 8 -15 11 -8 15 -15 9 -15 -7 0 -14
4 -18 9 -3 5 -22 7 -43 5 -36 -5 -36 -4 -14 11 12 9 22 22 21 28 0 9 -2 9 -6
0 -7 -18 -33 -16 -33 2 0 8 5 15 10 15 6 0 10 11 10 25 0 18 5 25 20 25 11 0
20 -4 20 -10 0 -5 10 -8 23 -6 12 1 20 7 18 12 -2 5 -6 14 -8 21 -3 6 -10 10
-16 8 -7 -2 -27 -6 -46 -9 l-34 -6 21 19 c28 23 29 51 2 51 -11 0 -19 3 -19 8
3 20 -4 65 -8 50 -7 -28 -21 -21 -15 7 3 16 0 25 -8 25 -7 0 -10 -8 -7 -20z
m-113 -275 c0 -9 -6 -12 -15 -9 -8 4 -15 1 -15 -7 0 -7 -2 -10 -5 -7 -3 3 -3
13 1 22 8 20 34 21 34 1z m50 5 c0 -5 -4 -10 -10 -10 -5 0 -10 5 -10 10 0 6 5
10 10 10 6 0 10 -4 10 -10z m-20 -84 c0 -15 -18 -31 -26 -23 -7 7 7 37 17 37
5 0 9 -6 9 -14z m120 -265 c0 -5 -7 -11 -14 -14 -10 -4 -13 -1 -9 9 6 15 23
19 23 5z m-2 -66 c-6 -14 -13 -23 -15 -21 -5 5 15 46 22 46 3 0 -1 -11 -7 -25z
m-95 -153 c-3 -7 -9 -10 -12 -5 -3 4 -10 11 -15 15 -4 4 1 6 12 5 12 -1 18 -6
15 -15z m-327 -279 c-10 -10 -19 5 -10 18 6 11 8 11 12 0 2 -7 1 -15 -2 -18z
m124 23 c0 -3 -4 -8 -10 -11 -5 -3 -10 -1 -10 4 0 6 5 11 10 11 6 0 10 -2 10
-4z"/>
<path d="M8052 8565 c0 -16 2 -22 5 -12 2 9 2 23 0 30 -3 6 -5 -1 -5 -18z"/>
<path d="M9465 8530 c-3 -6 1 -7 9 -4 18 7 21 14 7 14 -6 0 -13 -4 -16 -10z"/>
<path d="M9350 8520 c0 -5 5 -10 11 -10 5 0 7 5 4 10 -3 6 -8 10 -11 10 -2 0
-4 -4 -4 -10z"/>
<path d="M9496 8515 c-3 -8 0 -15 7 -16 7 0 3 -4 -8 -9 l-20 -9 20 -1 c11 -2
26 -2 33 -1 10 2 11 -2 2 -18 -10 -19 -8 -21 22 -21 30 1 31 2 16 14 -10 7
-18 18 -18 24 0 6 -10 18 -22 27 l-23 17 23 -7 c13 -4 22 -2 22 4 0 17 -47 13
-54 -4z"/>
<path d="M9621 8510 c-1 -8 -4 -25 -7 -36 -4 -16 0 -23 16 -27 15 -4 19 -2 11
6 -5 7 -11 26 -14 42 -2 17 -5 23 -6 15z"/>
<path d="M8062 8490 c0 -14 2 -19 5 -12 2 6 2 18 0 25 -3 6 -5 1 -5 -13z"/>
<path d="M9640 8492 c0 -16 48 -35 67 -26 15 6 12 9 -14 12 -18 2 -33 7 -33
13 0 5 -4 9 -10 9 -5 0 -10 -4 -10 -8z"/>
<path d="M8072 8400 c0 -19 2 -27 5 -17 2 9 2 25 0 35 -3 9 -5 1 -5 -18z"/>
<path d="M12011 8414 c-11 -13 -8 -20 25 -49 21 -19 40 -32 43 -29 3 3 -1 9
-8 13 -8 5 -10 14 -6 21 6 10 11 9 22 -5 7 -11 13 -14 13 -8 0 7 -5 15 -11 18
-6 4 -8 13 -5 21 3 7 0 16 -6 20 -7 4 -8 3 -4 -4 11 -17 -9 -15 -24 3 -15 19
-21 18 -39 -1z"/>
<path d="M9357 8413 c-4 -3 -7 -11 -7 -17 0 -6 5 -5 12 2 6 6 9 14 7 17 -3 3
-9 2 -12 -2z"/>
<path d="M9551 8388 c2 -32 2 -32 6 -5 3 20 9 27 19 23 8 -3 14 -1 14 4 0 6
-9 10 -20 10 -16 0 -20 -6 -19 -32z"/>
<path d="M8472 8390 c0 -14 2 -19 5 -12 2 6 2 18 0 25 -3 6 -5 1 -5 -13z"/>
<path d="M7922 8340 c0 -14 2 -19 5 -12 2 6 2 18 0 25 -3 6 -5 1 -5 -13z"/>
<path d="M9580 8341 c0 -5 5 -13 10 -16 6 -3 10 -2 10 4 0 5 -4 13 -10 16 -5
3 -10 2 -10 -4z"/>
<path d="M9615 8339 c-10 -15 3 -25 16 -12 7 7 7 13 1 17 -6 3 -14 1 -17 -5z"/>
<path d="M9698 8343 c6 -2 10 -9 6 -14 -3 -5 2 -9 12 -9 13 0 14 3 4 15 -7 8
-18 15 -24 14 -7 0 -6 -2 2 -6z"/>
<path d="M2795 8290 c-10 -11 -16 -22 -14 -24 2 -2 12 7 22 20 22 29 17 32 -8
4z"/>
<path d="M12100 8305 c0 -14 131 -157 138 -151 7 7 -41 76 -49 70 -4 -2 -13 4
-20 13 -12 14 -12 16 2 11 13 -5 15 -1 11 20 -5 23 -6 24 -18 7 -12 -16 -15
-15 -38 11 -14 16 -26 24 -26 19z"/>
<path d="M8555 8290 c-7 -12 2 -30 16 -30 5 0 9 9 9 20 0 21 -15 27 -25 10z"/>
<path d="M9614 8289 c-3 -6 -14 -9 -24 -6 -10 2 -23 1 -30 -3 -16 -10 45 -21
69 -12 16 6 17 9 5 19 -9 9 -15 10 -20 2z"/>
<path d="M8492 8265 c0 -16 2 -22 5 -12 2 9 2 23 0 30 -3 6 -5 -1 -5 -18z"/>
<path d="M12220 8270 c0 -5 10 -15 23 -21 22 -12 22 -12 3 10 -21 23 -26 26
-26 11z"/>
<path d="M3989 8199 c16 -6 28 -6 35 1 7 7 -1 10 -24 9 -33 0 -34 -1 -11 -10z"/>
<path d="M10990 8201 c-40 -7 -57 -41 -20 -41 12 0 18 -4 15 -11 -4 -6 -14 -8
-22 -5 -8 4 -11 1 -8 -5 4 -6 13 -8 21 -5 7 3 16 2 18 -3 3 -4 31 -14 63 -21
32 -7 63 -17 69 -22 15 -11 63 7 71 27 4 12 14 14 37 10 28 -5 29 -5 13 8 -10
8 -17 19 -16 23 1 5 1 18 0 29 -1 15 -4 16 -13 7 -10 -10 -10 -15 2 -22 20
-13 5 -13 -18 -1 -17 10 -159 42 -171 40 -3 -1 -22 -4 -41 -8z"/>
<path d="M3964 8164 c-18 -14 -18 -14 6 -3 31 14 36 19 24 19 -6 0 -19 -7 -30
-16z"/>
<path d="M8422 8140 c0 -19 2 -27 5 -17 2 9 2 25 0 35 -3 9 -5 1 -5 -18z"/>
<path d="M2675 8149 c-4 -6 -5 -12 -2 -15 2 -3 7 2 10 11 7 17 1 20 -8 4z"/>
<path d="M3572 8140 c0 -14 2 -19 5 -12 2 6 2 18 0 25 -3 6 -5 1 -5 -13z"/>
<path d="M8011 8134 c0 -11 3 -14 6 -6 3 7 2 16 -1 19 -3 4 -6 -2 -5 -13z"/>
<path d="M11436 8123 c-4 -5 -12 -8 -17 -8 -5 0 -8 -4 -7 -10 4 -16 58 -2 58
15 0 12 -23 14 -34 3z"/>
<path d="M11320 8089 c0 -5 -4 -7 -10 -4 -13 8 -71 -26 -64 -37 3 -4 14 -8 25
-8 10 0 27 -5 38 -11 22 -15 95 -3 85 13 -5 8 3 9 26 5 18 -4 37 -7 43 -7 5 0
7 -14 4 -35 -7 -40 4 -44 45 -17 22 14 25 21 16 30 -7 7 -20 12 -29 12 -10 0
-19 4 -21 8 -5 13 -114 62 -137 62 -12 0 -21 -5 -21 -11z m197 -85 c-3 -3 -12
-4 -19 -1 -8 3 -5 6 6 6 11 1 17 -2 13 -5z"/>
<path d="M8021 8044 c0 -11 3 -14 6 -6 3 7 2 16 -1 19 -3 4 -6 -2 -5 -13z"/>
<path d="M7953 7985 c0 -22 2 -30 4 -17 2 12 2 30 0 40 -3 9 -5 -1 -4 -23z"/>
<path d="M3868 7983 c6 -2 18 -2 25 0 6 3 1 5 -13 5 -14 0 -19 -2 -12 -5z"/>
<path d="M11523 7973 c-22 -8 -14 -30 13 -36 21 -4 25 -1 22 16 -3 22 -15 29
-35 20z"/>
<path d="M8056 7932 l-19 -27 24 22 c12 12 21 24 18 27 -2 2 -13 -8 -23 -22z"/>
<path d="M8655 7830 c3 -5 8 -10 11 -10 2 0 4 5 4 10 0 6 -5 10 -11 10 -5 0
-7 -4 -4 -10z"/>
<path d="M3963 7816 c-12 -15 -7 -26 12 -26 6 0 11 9 12 20 2 23 -7 25 -24 6z"/>
<path d="M8053 7793 c-28 -10 -10 -23 30 -22 27 1 33 3 17 6 -14 3 -27 8 -30
13 -3 4 -11 5 -17 3z"/>
<path d="M8940 7740 c-7 -17 -10 -33 -8 -36 3 -3 11 9 17 27 14 42 7 49 -9 9z"/>
<path d="M8188 7753 c7 -3 16 -2 19 1 4 3 -2 6 -13 5 -11 0 -14 -3 -6 -6z"/>
<path d="M8743 7721 c-10 -15 -9 -22 1 -30 10 -8 13 -4 13 19 0 17 -1 30 -1
30 -1 0 -7 -9 -13 -19z"/>
<path d="M8498 7672 c20 -22 25 -21 16 2 -3 9 -12 16 -20 16 -11 0 -10 -4 4
-18z"/>
<path d="M2176 7668 c3 -5 10 -6 15 -3 13 9 11 12 -6 12 -8 0 -12 -4 -9 -9z"/>
<path d="M8815 7650 c3 -5 8 -10 11 -10 2 0 4 5 4 10 0 6 -5 10 -11 10 -5 0
-7 -4 -4 -10z"/>
<path d="M2156 7634 c-5 -14 -4 -15 9 -4 17 14 19 20 6 20 -5 0 -12 -7 -15
-16z"/>
<path d="M8822 7619 c-25 -15 -38 -17 -53 -9 -13 7 -19 7 -19 0 0 -5 6 -10 14
-10 7 0 16 -9 19 -20 7 -27 23 -25 32 3 6 20 7 20 16 -10 5 -18 12 -33 15 -33
4 0 3 7 0 16 -4 9 -2 22 3 28 13 17 23 56 14 55 -4 0 -23 -9 -41 -20z"/>
<path d="M9296 7623 c-3 -3 -2 -11 3 -17 6 -7 4 -18 -5 -30 -8 -11 -14 -15
-14 -10 0 6 3 14 8 20 4 5 -9 -6 -29 -26 -20 -19 -32 -39 -27 -44 4 -5 -3 -23
-15 -40 -13 -17 -27 -39 -30 -50 -5 -12 -14 -17 -26 -13 -12 3 -22 -1 -25 -10
-4 -8 -1 -11 5 -7 8 4 7 0 0 -15 -7 -11 -19 -21 -27 -21 -8 0 -20 -13 -25 -30
-6 -16 -14 -28 -19 -25 -4 3 -14 -3 -21 -13 -13 -15 -12 -16 3 -4 11 9 17 9
20 2 4 -13 38 -2 38 12 0 5 -4 6 -10 3 -16 -10 -12 11 5 25 10 9 15 9 15 1 0
-22 20 -11 21 12 0 12 3 16 6 9 8 -22 -18 -72 -38 -72 -10 0 -19 -9 -21 -22
-4 -25 -28 -37 -28 -14 0 9 -8 16 -18 16 -20 0 -42 -18 -42 -34 0 -6 4 -5 9 3
8 12 12 12 25 -2 20 -20 21 -31 1 -23 -10 4 -15 -1 -15 -14 0 -29 21 -70 37
-70 7 0 13 -6 13 -13 0 -18 24 -67 33 -67 4 0 7 7 7 15 0 21 28 19 33 -2 4
-14 5 -12 6 5 1 19 7 22 40 22 22 0 42 5 44 13 4 10 6 10 6 0 1 -7 8 -13 16
-13 8 0 15 -5 15 -11 0 -5 4 -8 9 -5 4 3 6 17 3 31 -2 15 0 25 7 25 7 0 10 -4
6 -9 -3 -5 -1 -12 5 -16 6 -4 10 8 10 29 0 34 1 36 35 36 22 0 44 8 57 20 12
11 32 20 45 20 20 0 23 5 23 40 0 29 4 40 15 40 17 0 20 16 5 25 -15 9 -12 25
5 25 11 0 15 13 15 54 0 30 5 58 10 61 6 3 10 18 10 32 0 15 7 34 14 42 14 15
11 16 -27 14 -31 -2 -37 -1 -22 6 17 7 15 9 -15 13 -25 3 -17 5 25 7 43 1 56
4 45 11 -8 5 -28 10 -43 10 -16 0 -35 7 -43 15 -9 8 -26 15 -39 15 -13 0 -32
3 -42 6 -15 5 -15 4 -3 -5 24 -17 -15 -14 -49 4 -16 8 -31 11 -35 8z m81 -61
c-10 -9 -23 -12 -34 -8 -16 7 -16 9 7 21 30 16 48 8 27 -13z m-74 -25 c3 -7
-3 -13 -14 -14 -15 -1 -16 1 -6 12 15 18 14 18 20 2z m-173 -327 c0 -5 -7 -10
-15 -10 -8 0 -15 5 -15 10 0 6 7 10 15 10 8 0 15 -4 15 -10z m-27 -100 c-3
-12 -8 -19 -11 -16 -5 6 5 36 12 36 2 0 2 -9 -1 -20z"/>
<path d="M9545 7590 c33 -4 80 -8 105 -8 40 0 42 1 15 8 -16 4 -64 8 -105 7
l-75 0 60 -7z"/>
<path d="M9758 7593 c6 -2 18 -2 25 0 6 3 1 5 -13 5 -14 0 -19 -2 -12 -5z"/>
<path d="M2065 7520 c-3 -5 -1 -10 4 -10 6 0 11 5 11 10 0 6 -2 10 -4 10 -3 0
-8 -4 -11 -10z"/>
<path d="M8845 7519 c-4 -6 -5 -12 -2 -15 2 -3 7 2 10 11 7 17 1 20 -8 4z"/>
<path d="M2036 7484 c-9 -24 -2 -26 12 -4 7 11 8 20 3 20 -5 0 -12 -7 -15 -16z"/>
<path d="M8767 7419 c4 -13 8 -18 11 -10 2 7 -1 18 -6 23 -8 8 -9 4 -5 -13z"/>
<path d="M9020 7425 c-6 -8 -10 -19 -8 -26 2 -6 9 0 16 15 13 29 10 33 -8 11z"/>
<path d="M11765 7400 c10 -11 20 -20 23 -20 3 0 -3 9 -13 20 -10 11 -20 20
-23 20 -3 0 3 -9 13 -20z"/>
<path d="M8754 7331 c1 -22 4 -27 14 -19 10 8 10 14 0 27 -7 9 -13 17 -14 19
-1 1 -1 -11 0 -27z"/>
<path d="M11815 7329 c9 -17 19 -29 21 -26 7 7 -18 57 -28 57 -5 0 -1 -14 7
-31z"/>
<path d="M4835 7340 c3 -5 13 -10 21 -10 8 0 12 5 9 10 -3 6 -13 10 -21 10 -8
0 -12 -4 -9 -10z"/>
<path d="M8924 7305 c-13 -33 -34 -48 -34 -24 0 5 -4 8 -9 5 -5 -4 -11 -1 -13
6 -3 8 -6 9 -11 1 -6 -10 31 -63 45 -63 3 0 9 11 12 25 4 16 13 25 26 25 19 0
40 27 40 52 0 9 -3 9 -10 -2 -6 -10 -10 -11 -10 -2 0 24 -21 11 -36 -23z"/>
<path d="M4810 7317 c0 -18 32 -47 51 -46 8 0 4 4 -8 9 -13 5 -23 16 -23 24 0
8 -4 18 -10 21 -5 3 -10 0 -10 -8z"/>
<path d="M1894 7293 c-35 -48 -38 -59 -6 -23 28 31 38 50 29 50 -2 0 -12 -12
-23 -27z"/>
<path d="M4881 7316 c2 -2 29 -6 59 -9 36 -4 46 -3 30 3 -25 8 -97 13 -89 6z"/>
<path d="M8705 7299 c-11 -17 1 -21 15 -4 8 9 8 15 2 15 -6 0 -14 -5 -17 -11z"/>
<path d="M8814 7272 c-9 -13 -8 -20 3 -31 10 -9 11 -17 4 -25 -7 -8 -4 -12 10
-13 23 -2 24 6 4 34 -8 12 -12 28 -9 37 8 21 1 20 -12 -2z"/>
<path d="M11854 7263 c9 -18 18 -33 20 -33 9 0 -8 41 -22 52 -13 11 -12 8 2
-19z"/>
<path d="M8670 7259 c0 -5 5 -7 10 -4 6 3 10 8 10 11 0 2 -4 4 -10 4 -5 0 -10
-5 -10 -11z"/>
<path d="M8926 7255 c-9 -26 -7 -32 5 -12 6 10 9 21 6 23 -2 3 -7 -2 -11 -11z"/>
<path d="M5380 7215 l0 -45 28 17 c39 24 40 27 10 19 -24 -5 -26 -3 -23 19 1
14 -2 28 -6 31 -5 3 -9 -15 -9 -41z"/>
<path d="M4722 7193 c-6 -27 -14 -57 -18 -68 -5 -13 -4 -17 3 -10 6 6 16 31
23 58 14 52 18 54 58 31 26 -15 26 -15 -3 10 -16 14 -35 26 -41 26 -6 0 -16
-21 -22 -47z"/>
<path d="M8911 7204 c0 -11 3 -14 6 -6 3 7 2 16 -1 19 -3 4 -6 -2 -5 -13z"/>
<path d="M1825 7189 c-4 -6 -5 -12 -2 -15 2 -3 7 2 10 11 7 17 1 20 -8 4z"/>
<path d="M11895 7168 c22 -52 54 -114 55 -105 0 5 -11 33 -25 63 -14 30 -25
59 -25 64 0 6 -4 10 -9 10 -6 0 -4 -15 4 -32z"/>
<path d="M8981 7174 c0 -11 3 -14 6 -6 3 7 2 16 -1 19 -3 4 -6 -2 -5 -13z"/>
<path d="M4830 7177 c0 -9 83 -67 96 -67 8 0 10 8 6 22 -5 19 -6 19 -11 5 -6
-15 -12 -14 -49 14 -23 17 -42 28 -42 26z"/>
<path d="M8898 7174 c-5 -4 -8 -30 -7 -58 0 -44 2 -48 10 -26 11 27 8 96 -3
84z"/>
<path d="M8967 7120 c3 -19 8 -53 13 -75 l7 -40 2 53 c0 28 -3 52 -8 52 -5 0
-12 10 -14 23 -2 12 -2 6 0 -13z"/>
<path d="M5218 7143 c7 -3 16 -2 19 1 4 3 -2 6 -13 5 -11 0 -14 -3 -6 -6z"/>
<path d="M8841 7104 c0 -11 3 -14 6 -6 3 7 2 16 -1 19 -3 4 -6 -2 -5 -13z"/>
<path d="M5483 7100 c-24 -10 -24 -2 11 -115 9 -27 16 -53 16 -56 0 -3 -19
-14 -42 -25 -24 -10 -45 -21 -48 -25 -3 -3 -28 -18 -57 -32 -28 -15 -55 -32
-59 -39 -6 -9 -3 -9 9 1 9 7 24 11 32 7 9 -3 13 -2 10 4 -6 9 6 16 142 84 74
37 96 55 65 52 -13 -1 -17 6 -15 34 2 31 1 32 -7 10 -6 -18 -8 -20 -9 -7 -1
10 4 27 9 38 8 13 7 19 0 19 -6 0 -8 5 -5 10 3 6 -1 13 -10 16 -12 5 -13 9 -4
20 14 17 -3 18 -38 4z m63 -157 c-7 -7 -26 7 -26 19 0 6 6 6 15 -2 9 -7 13
-15 11 -17z"/>
<path d="M4738 7046 c14 -30 29 -53 34 -50 9 6 -24 75 -45 93 -9 7 -5 -9 11
-43z"/>
<path d="M8941 7074 c0 -11 3 -14 6 -6 3 7 2 16 -1 19 -3 4 -6 -2 -5 -13z"/>
<path d="M4518 7073 c7 -3 16 -2 19 1 4 3 -2 6 -13 5 -11 0 -14 -3 -6 -6z"/>
<path d="M4551 7066 c12 -10 60 -16 54 -6 -3 5 -18 10 -32 10 -15 0 -24 -2
-22 -4z"/>
<path d="M5245 7060 c27 -12 43 -12 25 0 -8 5 -22 9 -30 9 -10 0 -8 -3 5 -9z"/>
<path d="M4318 7053 c7 -3 16 -2 19 1 4 3 -2 6 -13 5 -11 0 -14 -3 -6 -6z"/>
<path d="M8851 7046 c-15 -19 -24 -59 -12 -52 11 7 16 -12 11 -44 -3 -25 16 2
29 39 6 19 11 42 11 51 0 19 -26 23 -39 6z m18 -56 c1 -13 0 -13 -9 0 -5 8 -9
24 -9 35 l0 20 9 -20 c5 -11 9 -27 9 -35z"/>
<path d="M9228 7048 c-4 -9 -4 -19 -1 -22 10 -10 51 -7 58 4 3 6 -5 10 -19 10
-13 0 -26 5 -28 12 -3 8 -6 6 -10 -4z"/>
<path d="M461 7043 c-1 -6 -4 -20 -7 -30 -5 -17 -5 -17 6 0 6 10 9 23 6 30 -3
9 -5 9 -5 0z"/>
<path d="M5338 7043 c-10 -2 -18 -9 -18 -14 0 -13 12 -11 34 6 20 15 16 17
-16 8z"/>
<path d="M8923 7005 c-12 -52 -2 -60 15 -12 14 39 15 57 4 57 -5 0 -13 -20
-19 -45z"/>
<path d="M11950 7041 c0 -6 5 -13 10 -16 6 -3 10 1 10 9 0 9 -4 16 -10 16 -5
0 -10 -4 -10 -9z"/>
<path d="M8455 7010 c-3 -5 -1 -10 4 -10 6 0 11 5 11 10 0 6 -2 10 -4 10 -3 0
-8 -4 -11 -10z"/>
<path d="M4301 6994 c0 -11 3 -14 6 -6 3 7 2 16 -1 19 -3 4 -6 -2 -5 -13z"/>
<path d="M9315 6999 c-11 -16 -1 -19 13 -3 7 8 8 14 3 14 -5 0 -13 -5 -16 -11z"/>
<path d="M11975 6985 c6 -27 33 -96 70 -180 11 -24 14 -26 14 -9 1 11 -3 24
-8 30 -5 5 -25 50 -46 99 -20 50 -34 77 -30 60z"/>
<path d="M4668 6985 c20 -53 64 -125 76 -125 14 0 -20 61 -69 125 l-15 20 8
-20z"/>
<path d="M9150 6990 c0 -5 5 -10 10 -10 6 0 10 5 10 10 0 6 -4 10 -10 10 -5 0
-10 -4 -10 -10z"/>
<path d="M1757 6900 c3 -47 9 -103 14 -125 4 -24 5 0 2 60 -3 55 -10 111 -14
125 -4 14 -5 -13 -2 -60z"/>
<path d="M4221 6914 c0 -11 3 -14 6 -6 3 7 2 16 -1 19 -3 4 -6 -2 -5 -13z"/>
<path d="M4430 6927 c0 -3 12 -12 26 -22 15 -9 23 -12 20 -6 -7 11 -46 35 -46
28z"/>
<path d="M8831 6894 c0 -11 3 -14 6 -6 3 7 2 16 -1 19 -3 4 -6 -2 -5 -13z"/>
<path d="M4500 6890 c-8 -5 -13 -10 -10 -11 3 0 13 -2 22 -4 11 -2 15 2 11 11
-6 16 -4 16 -23 4z"/>
<path d="M8896 6882 c-2 -4 -1 -14 4 -22 7 -11 9 -9 7 8 -1 24 -3 26 -11 14z"/>
<path d="M4221 6864 c0 -11 3 -14 6 -6 3 7 2 16 -1 19 -3 4 -6 -2 -5 -13z"/>
<path d="M8713 6873 c9 -2 23 -2 30 0 6 3 -1 5 -18 5 -16 0 -22 -2 -12 -5z"/>
<path d="M8950 6870 c0 -5 5 -10 10 -10 6 0 10 5 10 10 0 6 -4 10 -10 10 -5 0
-10 -4 -10 -10z"/>
<path d="M376 6845 c-9 -26 -7 -32 5 -12 6 10 9 21 6 23 -2 3 -7 -2 -11 -11z"/>
<path d="M7894 6841 c4 -6 16 -16 28 -22 15 -8 18 -8 14 0 -4 6 -16 16 -28 22
-15 8 -18 8 -14 0z"/>
<path d="M5467 6789 c-31 -27 -70 -67 -87 -90 l-32 -40 21 -18 c11 -10 21 -24
21 -31 0 -8 6 -9 18 -5 9 4 31 13 47 19 17 6 45 25 62 41 27 26 31 38 36 100
5 63 4 71 -13 72 -9 1 -43 -21 -73 -48z"/>
<path d="M8810 6829 c0 -5 5 -7 10 -4 6 3 10 8 10 11 0 2 -4 4 -10 4 -5 0 -10
-5 -10 -11z"/>
<path d="M5383 6815 c0 -8 4 -12 9 -9 5 3 6 10 3 15 -9 13 -12 11 -12 -6z"/>
<path d="M4220 6810 c0 -5 5 -10 11 -10 5 0 7 5 4 10 -3 6 -8 10 -11 10 -2 0
-4 -4 -4 -10z"/>
<path d="M4826 6805 c-3 -8 -1 -15 4 -15 6 0 10 7 10 15 0 8 -2 15 -4 15 -2 0
-6 -7 -10 -15z"/>
<path d="M5100 6797 c0 -14 5 -29 10 -32 7 -4 8 3 4 22 -9 38 -14 42 -14 10z"/>
<path d="M8730 6809 c-20 -6 -17 -7 18 -8 23 -1 42 1 42 3 0 9 -37 12 -60 5z"/>
<path d="M12061 6765 c1 -19 18 -51 18 -35 0 8 -4 22 -9 30 -5 8 -9 11 -9 5z"/>
<path d="M8575 6730 c-3 -11 -2 -28 4 -37 8 -14 10 -11 9 20 -1 42 -4 46 -13
17z"/>
<path d="M8733 6723 c9 -2 23 -2 30 0 6 3 -1 5 -18 5 -16 0 -22 -2 -12 -5z"/>
<path d="M8803 6723 c9 -2 23 -2 30 0 6 3 -1 5 -18 5 -16 0 -22 -2 -12 -5z"/>
<path d="M4271 6716 c2 -2 29 -6 59 -9 36 -4 46 -3 30 3 -25 8 -97 13 -89 6z"/>
<path d="M343 6692 c-11 -7 -53 -117 -53 -137 1 -5 16 23 35 64 36 75 38 85
18 73z"/>
<path d="M1710 6677 c-19 -12 -44 -29 -55 -39 -11 -9 -31 -25 -45 -36 -14 -11
-22 -23 -18 -27 6 -7 27 8 83 60 18 17 44 38 56 47 34 25 20 22 -21 -5z"/>
<path d="M4398 6693 c7 -3 16 -2 19 1 4 3 -2 6 -13 5 -11 0 -14 -3 -6 -6z"/>
<path d="M4440 6682 c8 -5 26 -13 40 -16 17 -5 20 -4 10 2 -8 5 -26 13 -40 16
-17 5 -20 4 -10 -2z"/>
<path d="M7970 6669 c0 -5 5 -7 10 -4 6 3 10 8 10 11 0 2 -4 4 -10 4 -5 0 -10
-5 -10 -11z"/>
<path d="M9528 6603 c7 -3 16 -2 19 1 4 3 -2 6 -13 5 -11 0 -14 -3 -6 -6z"/>
<path d="M5410 6580 c0 -5 -6 -10 -14 -10 -8 0 -17 -4 -20 -9 -3 -5 12 -4 34
1 42 11 54 28 20 28 -11 0 -20 -4 -20 -10z"/>
<path d="M4310 6560 c0 -11 2 -20 4 -20 2 0 6 9 9 20 3 11 1 20 -4 20 -5 0 -9
-9 -9 -20z"/>
<path d="M5490 6571 c-8 -6 -17 -8 -22 -5 -11 7 -78 -23 -78 -35 0 -6 -5 -10
-11 -8 -6 1 -14 -4 -17 -12 -3 -8 0 -11 7 -7 7 5 9 1 5 -8 -5 -14 -9 -13 -30
2 -13 9 -26 25 -30 35 -3 10 -8 16 -11 13 -11 -11 28 -56 69 -80 48 -28 118
-44 118 -28 0 6 -8 13 -17 15 -11 3 -7 5 10 6 16 0 26 5 22 11 -3 6 -3 10 2
10 12 0 36 59 30 75 -3 7 -1 16 6 19 7 2 1 5 -13 5 -14 0 -32 -3 -40 -8z"/>
<path d="M4370 6560 c8 -5 26 -9 40 -9 23 0 23 1 5 9 -11 5 -29 9 -40 9 -17 1
-17 -1 -5 -9z"/>
<path d="M8334 6555 c-3 -8 -4 -20 -2 -27 3 -7 7 -1 10 15 6 29 1 36 -8 12z"/>
<path d="M4435 6540 c-3 -5 0 -7 8 -4 20 7 97 -14 97 -27 0 -5 -10 -8 -22 -6
-13 2 -17 2 -10 0 7 -3 9 -9 6 -15 -4 -6 1 -6 14 1 12 6 24 15 27 21 3 5 13 6
23 3 11 -4 14 -3 7 4 -10 9 -103 33 -130 33 -8 0 -17 -4 -20 -10z"/>
<path d="M7902 6525 c-6 -14 -10 -25 -8 -25 2 0 11 11 20 25 9 14 13 25 8 25
-5 0 -14 -11 -20 -25z"/>
<path d="M275 6530 c-3 -5 -1 -10 4 -10 6 0 11 5 11 10 0 6 -2 10 -4 10 -3 0
-8 -4 -11 -10z"/>
<path d="M8550 6521 c0 -5 5 -13 10 -16 6 -3 10 -2 10 4 0 5 -4 13 -10 16 -5
3 -10 2 -10 -4z"/>
<path d="M9630 6514 c0 -12 37 -44 50 -44 6 0 10 5 10 12 0 6 -3 8 -7 5 -3 -4
-17 3 -30 15 -13 12 -23 17 -23 12z"/>
<path d="M4060 6500 c0 -5 6 -11 13 -14 6 -3 3 -4 -8 -1 -15 4 -32 -6 -59 -34
l-38 -39 18 -26 c28 -38 50 -41 87 -14 31 23 102 53 142 60 12 2 -14 17 -68
40 -48 20 -87 32 -87 28z m75 -40 c3 -5 1 -10 -4 -10 -6 0 -11 5 -11 10 0 6 2
10 4 10 3 0 8 -4 11 -10z"/>
<path d="M4311 6494 c0 -11 3 -14 6 -6 3 7 2 16 -1 19 -3 4 -6 -2 -5 -13z"/>
<path d="M8525 6500 c3 -5 8 -10 11 -10 2 0 4 5 4 10 0 6 -5 10 -11 10 -5 0
-7 -4 -4 -10z"/>
<path d="M4720 6492 c0 -5 7 -15 15 -22 8 -7 15 -8 15 -2 0 5 -7 15 -15 22 -8
7 -15 8 -15 2z"/>
<path d="M4630 6468 c0 -2 14 -20 31 -39 17 -19 27 -25 21 -14 -10 20 -52 63
-52 53z"/>
<path d="M1730 6433 c-23 -8 -81 -45 -78 -49 2 -1 30 6 63 17 34 12 94 22 138
24 43 2 81 6 84 9 8 7 -186 6 -207 -1z"/>
<path d="M8276 6418 c8 -27 12 -33 19 -27 7 8 -7 49 -17 49 -5 0 -6 -10 -2
-22z"/>
<path d="M1995 6420 c55 -9 158 -33 190 -45 14 -6 17 -5 10 3 -14 15 -171 52
-214 51 -32 -1 -30 -2 14 -9z"/>
<path d="M9276 6409 c-14 -11 -20 -29 -20 -58 -1 -28 -5 -41 -15 -41 -8 0 -12
-3 -8 -6 9 -9 137 16 137 27 0 5 17 10 38 10 30 2 32 3 10 6 -27 4 -37 17 -20
26 4 2 2 2 -5 1 -6 -2 -17 4 -23 12 -9 9 -9 14 -2 14 6 0 9 7 6 15 -8 20 -70
16 -98 -6z"/>
<path d="M3268 6393 c6 -2 18 -2 25 0 6 3 1 5 -13 5 -14 0 -19 -2 -12 -5z"/>
<path d="M3325 6380 c11 -5 29 -9 40 -9 l20 0 -20 9 c-11 5 -29 9 -40 9 l-20
0 20 -9z"/>
<path d="M3876 6352 c-14 -21 -25 -49 -24 -62 2 -12 -3 -25 -11 -28 -10 -3
-11 2 -6 19 6 20 2 19 -24 -11 -16 -19 -30 -38 -31 -42 0 -12 15 -9 28 4 7 7
19 13 26 13 16 0 176 78 176 86 0 11 -49 59 -59 59 -6 0 -28 -23 -48 -50 -21
-28 -39 -46 -42 -39 -2 6 5 23 16 37 26 36 35 52 30 52 -2 0 -16 -17 -31 -38z"/>
<path d="M8337 6357 c-10 -25 -11 -23 22 -37 17 -7 28 -17 25 -25 -3 -7 5 -14
20 -17 22 -4 25 -2 24 19 -2 13 -9 30 -17 36 -12 10 -13 9 -6 -2 6 -11 3 -13
-16 -8 -13 4 -27 7 -31 7 -4 0 -8 10 -10 23 -3 20 -4 20 -11 4z"/>
<path d="M8452 6358 c3 -7 13 -15 22 -16 12 -3 17 1 14 10 -3 7 -13 15 -22 16
-12 3 -17 -1 -14 -10z"/>
<path d="M3328 6353 c7 -3 16 -2 19 1 4 3 -2 6 -13 5 -11 0 -14 -3 -6 -6z"/>
<path d="M3360 6356 c0 -8 51 -13 56 -5 3 5 -9 9 -25 9 -17 0 -31 -2 -31 -4z"/>
<path d="M4710 6351 c0 -6 4 -13 10 -16 6 -3 7 1 4 9 -7 18 -14 21 -14 7z"/>
<path d="M3516 6342 c-3 -6 -1 -14 5 -18 8 -4 9 -3 5 4 -9 15 9 15 34 2 13 -7
21 -7 25 0 3 5 0 10 -7 10 -7 0 -23 3 -34 6 -12 3 -25 1 -28 -4z"/>
<path d="M8976 6333 c-4 -8 -13 -13 -21 -9 -15 5 -20 -5 -8 -17 3 -4 13 -1 22
7 14 13 19 9 40 -35 27 -52 47 -67 30 -21 -31 83 -51 107 -63 75z"/>
<path d="M3290 6336 c0 -8 60 -12 72 -4 8 4 -4 8 -29 8 -24 0 -43 -2 -43 -4z"/>
<path d="M2266 6322 c-3 -5 1 -9 9 -9 8 0 12 4 9 9 -3 4 -7 8 -9 8 -2 0 -6 -4
-9 -8z"/>
<path d="M3428 6323 c7 -3 16 -2 19 1 4 3 -2 6 -13 5 -11 0 -14 -3 -6 -6z"/>
<path d="M11580 6320 c46 -9 137 -13 129 -6 -2 2 -42 6 -89 9 -62 4 -73 3 -40
-3z"/>
<path d="M11445 6310 c-3 -6 1 -7 9 -4 18 7 21 14 7 14 -6 0 -13 -4 -16 -10z"/>
<path d="M11788 6303 c18 -2 45 -2 60 0 15 2 0 4 -33 4 -33 0 -45 -2 -27 -4z"/>
<path d="M10078 6293 c6 -2 18 -2 25 0 6 3 1 5 -13 5 -14 0 -19 -2 -12 -5z"/>
<path d="M9982 6281 c-12 -7 -12 -12 -1 -30 8 -11 18 -21 23 -21 6 0 5 5 -2
12 -19 19 -14 36 11 41 19 4 19 4 2 5 -11 1 -26 -2 -33 -7z"/>
<path d="M13770 6281 c0 -6 4 -13 10 -16 6 -3 7 1 4 9 -7 18 -14 21 -14 7z"/>
<path d="M11368 6273 c-20 -5 -24 -23 -6 -23 7 0 29 -17 50 -37 21 -20 38 -33
38 -27 0 5 -16 22 -35 38 -27 23 -32 32 -24 43 12 13 8 14 -23 6z"/>
<path d="M1532 6261 c-11 -7 -11 -9 0 -14 9 -3 15 1 15 9 0 8 -1 14 -1 14 -1
0 -7 -4 -14 -9z"/>
<path d="M4610 6225 c-6 -8 -10 -20 -8 -26 2 -6 12 0 21 15 18 27 8 37 -13 11z"/>
<path d="M4643 6205 c-31 -47 -29 -54 4 -13 15 18 32 36 38 40 6 5 4 8 -5 8
-8 0 -25 -16 -37 -35z"/>
<path d="M10250 6170 c0 -5 5 -10 10 -10 6 0 10 5 10 10 0 6 -4 10 -10 10 -5
0 -10 -4 -10 -10z"/>
<path d="M10066 6133 c16 -21 33 -42 38 -48 16 -14 66 -93 66 -103 0 -4 14
-24 31 -45 l30 -37 27 26 c15 14 37 30 50 35 26 10 29 24 6 33 -9 3 -14 13
-11 21 4 9 1 12 -9 8 -8 -3 -14 1 -14 10 0 15 -49 68 -86 93 -33 22 -56 8 -49
-30 l6 -31 -41 45 c-22 25 -40 48 -40 53 0 4 -7 7 -16 7 -11 0 -9 -9 12 -37z"/>
<path d="M11761 6137 c0 -16 3 -36 8 -45 5 -9 5 -26 1 -37 -6 -16 -8 -14 -13
13 -7 36 -28 44 -24 10 2 -21 -3 -23 -46 -26 -40 -3 -51 1 -67 20 -10 13 -21
20 -24 17 -4 -3 3 -18 15 -33 12 -15 19 -29 16 -32 -9 -10 -47 54 -41 70 3 9
1 16 -5 16 -6 0 -11 -5 -11 -11 0 -7 -9 -9 -22 -6 l-23 6 21 -17 c16 -13 91
-109 110 -140 1 -2 24 8 51 22 60 30 88 67 78 105 -3 14 -10 42 -14 61 -8 33
-9 33 -10 7z"/>
<path d="M10287 6098 c10 -18 20 -35 23 -38 13 -13 41 -71 37 -78 -3 -4 7 -16
21 -26 23 -17 20 -8 -25 74 -28 52 -56 96 -62 98 -6 2 -3 -11 6 -30z"/>
<path d="M11545 6120 c-3 -5 -1 -10 4 -10 6 0 11 5 11 10 0 6 -2 10 -4 10 -3
0 -8 -4 -11 -10z"/>
<path d="M11712 6100 c0 -19 2 -27 5 -17 2 9 2 25 0 35 -3 9 -5 1 -5 -18z"/>
<path d="M4841 6064 c0 -11 3 -14 6 -6 3 7 2 16 -1 19 -3 4 -6 -2 -5 -13z"/>
<path d="M13781 6023 c0 -31 2 -34 9 -18 12 28 12 55 0 55 -5 0 -10 -17 -9
-37z"/>
<path d="M75 5728 c4 -18 13 -40 21 -48 12 -12 11 -5 -2 33 -18 54 -29 62 -19
15z"/>
<path d="M110 5651 c0 -5 5 -13 10 -16 6 -3 10 -2 10 4 0 5 -4 13 -10 16 -5 3
-10 2 -10 -4z"/>
<path d="M263 5453 c20 -2 54 -2 75 0 20 2 3 4 -38 4 -41 0 -58 -2 -37 -4z"/>
<path d="M12805 5150 c-3 -5 1 -10 10 -10 9 0 13 5 10 10 -3 6 -8 10 -10 10
-2 0 -7 -4 -10 -10z"/>
<path d="M12640 5090 c-11 -8 -7 -9 15 -4 37 8 45 14 19 14 -10 0 -26 -5 -34
-10z"/>
<path d="M1490 5070 c8 -5 24 -10 35 -10 17 0 17 2 5 10 -8 5 -24 10 -35 10
-17 0 -17 -2 -5 -10z"/>
<path d="M12590 5070 c0 -5 5 -10 11 -10 5 0 7 5 4 10 -3 6 -8 10 -11 10 -2 0
-4 -4 -4 -10z"/>
<path d="M12532 5059 c-48 -10 -54 -23 -7 -14 22 4 42 9 44 11 9 9 -6 10 -37
3z"/>
<path d="M1580 5056 c0 -2 11 -6 25 -8 13 -3 22 -1 19 3 -5 9 -44 13 -44 5z"/>
<path d="M1678 5033 c7 -3 16 -2 19 1 4 3 -2 6 -13 5 -11 0 -14 -3 -6 -6z"/>
<path d="M1725 5030 c11 -5 27 -9 35 -9 9 0 8 4 -5 9 -11 5 -27 9 -35 9 -9 0
-8 -4 5 -9z"/>
<path d="M1818 5033 c7 -3 16 -2 19 1 4 3 -2 6 -13 5 -11 0 -14 -3 -6 -6z"/>
<path d="M1803 5013 c9 -2 25 -2 35 0 9 3 1 5 -18 5 -19 0 -27 -2 -17 -5z"/>
<path d="M1905 4990 c11 -5 27 -9 35 -9 13 -1 13 0 0 9 -8 5 -24 9 -35 9 l-20
0 20 -9z"/>
<path d="M11808 4623 c7 -3 16 -2 19 1 4 3 -2 6 -13 5 -11 0 -14 -3 -6 -6z"/>
<path d="M3592 4493 c-12 -2 -20 -8 -17 -13 3 -5 12 -7 20 -3 10 3 13 1 10 -9
-3 -8 1 -21 10 -28 10 -8 15 -9 15 -1 0 6 -4 11 -10 11 -19 0 -10 22 11 27 16
4 17 8 7 14 -7 5 -15 8 -18 7 -3 0 -15 -3 -28 -5z"/>
<path d="M3710 4440 c0 -5 5 -10 10 -10 6 0 10 5 10 10 0 6 -4 10 -10 10 -5 0
-10 -4 -10 -10z"/>
<path d="M3671 4391 c-10 -6 -9 -10 3 -14 8 -3 18 -2 21 3 8 13 -9 20 -24 11z"/>
<path d="M3769 4303 c-13 -16 -12 -17 4 -4 16 13 21 21 13 21 -2 0 -10 -8 -17
-17z"/>
<path d="M3854 4229 c-3 -6 -2 -15 3 -20 5 -5 9 -1 9 11 0 23 -2 24 -12 9z"/>
<path d="M10525 4210 c-13 -6 -15 -9 -5 -9 8 0 22 4 30 9 18 12 2 12 -25 0z"/>
<path d="M4171 3740 c0 -8 4 -22 9 -30 12 -18 12 -2 0 25 -6 13 -9 15 -9 5z"/>
<path d="M9020 3669 c0 -5 5 -7 10 -4 6 3 10 8 10 11 0 2 -4 4 -10 4 -5 0 -10
-5 -10 -11z"/>
<path d="M9007 3644 c-4 -4 -7 -17 -7 -28 1 -19 1 -20 11 -3 11 19 8 43 -4 31z"/>
<path d="M4282 3260 c0 -14 2 -19 5 -12 2 6 2 18 0 25 -3 6 -5 1 -5 -13z"/>
<path d="M4302 3160 c0 -14 2 -19 5 -12 2 6 2 18 0 25 -3 6 -5 1 -5 -13z"/>
<path d="M8911 3074 c0 -11 3 -14 6 -6 3 7 2 16 -1 19 -3 4 -6 -2 -5 -13z"/>
<path d="M7760 3020 c0 -5 5 -10 10 -10 6 0 10 5 10 10 0 6 -4 10 -10 10 -5 0
-10 -4 -10 -10z"/>
<path d="M7790 3010 c0 -5 5 -10 11 -10 5 0 7 5 4 10 -3 6 -8 10 -11 10 -2 0
-4 -4 -4 -10z"/>
<path d="M7900 3000 c0 -5 5 -10 11 -10 5 0 7 5 4 10 -3 6 -8 10 -11 10 -2 0
-4 -4 -4 -10z"/>
<path d="M4342 2930 c0 -14 2 -19 5 -12 2 6 2 18 0 25 -3 6 -5 1 -5 -13z"/>
<path d="M8872 2700 c0 -14 2 -19 5 -12 2 6 2 18 0 25 -3 6 -5 1 -5 -13z"/>
<path d="M8847 2525 c-4 -8 -2 -17 3 -20 6 -4 10 3 10 14 0 25 -6 27 -13 6z"/>
<path d="M8770 1461 c0 -6 4 -13 10 -16 6 -3 7 1 4 9 -7 18 -14 21 -14 7z"/>
<path d="M8832 1330 c0 -14 2 -19 5 -12 2 6 2 18 0 25 -3 6 -5 1 -5 -13z"/>
<path d="M8832 1200 c0 -14 2 -19 5 -12 2 6 2 18 0 25 -3 6 -5 1 -5 -13z"/>
<path d="M4194 428 c-4 -7 -3 -8 4 -4 7 4 12 3 12 -2 0 -6 7 -12 14 -15 10 -4
13 -1 10 8 -7 18 -32 27 -40 13z"/>
<path d="M9280 261 c0 -6 4 -13 10 -16 6 -3 7 1 4 9 -7 18 -14 21 -14 7z"/>
</g>
</svg>
